<?xml version="1.0" encoding="utf-8"?>
<!-- Generator: Adobe Illustrator 21.0.1, SVG Export Plug-In . SVG Version: 6.00 Build 0)  -->
<svg version="1.1" id="Layer_1" xmlns="http://www.w3.org/2000/svg" xmlns:xlink="http://www.w3.org/1999/xlink" x="0px" y="0px"
	 viewBox="0 0 80 80" style="enable-background:new 0 0 80 80;" xml:space="preserve">
<style type="text/css">
	.st0{fill:#39314C;}
	.st1{fill:#FFFFFF;}
	.st2{fill:none;stroke:#48E584;stroke-width:2;stroke-linejoin:round;stroke-miterlimit:10;}
	.st3{fill:none;stroke:#39314C;stroke-width:2;stroke-linejoin:round;stroke-miterlimit:10;}
	.st4{fill:#48E584;}
	.st5{fill:none;stroke:#39314C;stroke-width:2;stroke-miterlimit:10;}
	.st6{fill:none;stroke:#48E584;stroke-width:2;stroke-linecap:round;stroke-miterlimit:10;}
	.st7{fill:none;stroke:#39314C;stroke-width:2;stroke-linecap:round;stroke-miterlimit:10;}
	.st8{clip-path:url(#SVGID_2_);}
	.st9{clip-path:url(#SVGID_4_);fill:#39314C;}
	.st10{clip-path:url(#SVGID_6_);}
	.st11{clip-path:url(#SVGID_8_);fill:#39314C;}
	.st12{fill:none;stroke:#39314C;stroke-width:1.9425;stroke-miterlimit:10;}
	.st13{fill-rule:evenodd;clip-rule:evenodd;fill:#39314C;}
	.st14{fill-rule:evenodd;clip-rule:evenodd;fill:none;stroke:#39314C;stroke-width:2;stroke-miterlimit:10;}
	.st15{fill-rule:evenodd;clip-rule:evenodd;fill:#39314C;stroke:#39314C;stroke-width:1.6222;stroke-miterlimit:10;}
	.st16{clip-path:url(#SVGID_10_);}
	.st17{clip-path:url(#SVGID_12_);}
	.st18{fill:#FFFFFF;stroke:#39314C;stroke-width:2;stroke-linejoin:round;stroke-miterlimit:10;}
	.st19{clip-path:url(#SVGID_14_);}
	.st20{clip-path:url(#SVGID_16_);fill:#48E584;}
	.st21{fill:#39314C;stroke:#39314C;stroke-width:2;stroke-miterlimit:10;}
	.st22{fill:#48E584;stroke:#48E584;stroke-linecap:round;stroke-miterlimit:10;}
	.st23{fill:#39314C;stroke:#39314C;stroke-miterlimit:10;}
	.st24{fill:#48E584;stroke:#48E584;stroke-width:2;stroke-linecap:round;stroke-miterlimit:10;}
	.st25{fill:#FFFFFF;stroke:#48E584;stroke-width:2;stroke-linecap:round;stroke-linejoin:round;stroke-miterlimit:10;}
	.st26{fill:#FFFFFF;stroke:#39314C;stroke-width:2;stroke-miterlimit:10;}
	.st27{fill:#FFFFFF;stroke:#39314C;stroke-width:2;stroke-linecap:round;stroke-miterlimit:10;}
	.st28{fill:#48E584;stroke:#39314C;stroke-width:2;stroke-miterlimit:10;}
	.st29{fill:none;stroke:#39314C;stroke-width:3;stroke-miterlimit:10;}
	.st30{fill:none;stroke:#39314C;stroke-width:3;stroke-linejoin:round;stroke-miterlimit:10;}
</style>
<g>
	<defs>
		<path id="SVGID_1_" d="M-428.6-187c-0.9,0-1.5,0.7-1.5,1.5v20.5c0,0.9,0.7,1.5,1.5,1.5c0.9,0,1.5-0.7,1.5-1.5v-20.5
			C-427.1-186.4-427.8-187-428.6-187z"/>
	</defs>
	<clipPath id="SVGID_2_">
		<use xlink:href="#SVGID_1_"  style="overflow:visible;"/>
	</clipPath>
	<g class="st8">
		<defs>
			<rect id="SVGID_3_" x="-1150.5" y="-926.6" width="1366" height="1696"/>
		</defs>
		<clipPath id="SVGID_4_">
			<use xlink:href="#SVGID_3_"  style="overflow:visible;"/>
		</clipPath>
	</g>
</g>
<g>
	<defs>
		<path id="SVGID_5_" d="M-428.6-160.8c-0.9,0-1.5,0.7-1.5,1.5v8.2c0,0.9,0.7,1.5,1.5,1.5c0.9,0,1.5-0.7,1.5-1.5v-8.2
			C-427.1-160.1-427.8-160.8-428.6-160.8z"/>
	</defs>
	<clipPath id="SVGID_6_">
		<use xlink:href="#SVGID_5_"  style="overflow:visible;"/>
	</clipPath>
	<g class="st10">
		<defs>
			<rect id="SVGID_7_" x="-1150.5" y="-926.6" width="1366" height="1696"/>
		</defs>
		<clipPath id="SVGID_8_">
			<use xlink:href="#SVGID_7_"  style="overflow:visible;"/>
		</clipPath>
	</g>
</g>
<g>
	<defs>
		<path id="SVGID_9_" d="M-78.2,32.8c-1.6,0-3-1.3-3-3s1.3-3,3-3c1.6,0,3,1.3,3,3S-76.6,32.8-78.2,32.8z M-77.7,42.5h10.2
			c0.7,0,1.3-0.6,1.3-1.3c0-0.7-0.6-1.3-1.3-1.3h-10.2c-4.9,0-8.9-4-8.9-8.9v-0.4c0-4.9,4-8.9,8.9-8.9c4.9,0,8.9,4,8.9,8.9v0.9
			c0,1.1-0.9,1.9-1.9,1.9c-1.1,0-1.9-0.9-1.9-1.9v-1.8c0-3.1-2.5-5.5-5.5-5.5c-3.1,0-5.5,2.5-5.5,5.5c0,3.1,2.5,5.5,5.5,5.5
			c1.4,0,2.7-0.5,3.6-1.4c0.8,1.3,2.2,2.1,3.8,2.1c2.5,0,4.5-2,4.5-4.5v-0.9c0-6.3-5.2-11.5-11.5-11.5c-6.3,0-11.5,5.2-11.5,11.5V31
			C-89.3,37.4-84.1,42.5-77.7,42.5z"/>
	</defs>
	<clipPath id="SVGID_10_">
		<use xlink:href="#SVGID_9_"  style="overflow:visible;"/>
	</clipPath>
	<g class="st16">
		<defs>
			<rect id="SVGID_11_" x="-611.5" y="-742" width="1058.3" height="1313.9"/>
		</defs>
		<clipPath id="SVGID_12_">
			<use xlink:href="#SVGID_11_"  style="overflow:visible;"/>
		</clipPath>
	</g>
</g>
<g>
	<g>
		<defs>
			<path id="SVGID_13_" d="M-78.4-67.5c-1.6,0-3-1.3-3-3s1.3-3,3-3c1.6,0,3,1.3,3,3S-76.7-67.5-78.4-67.5z M-77.9-57.7h10.2
				c0.7,0,1.3-0.6,1.3-1.3c0-0.7-0.6-1.3-1.3-1.3h-10.2c-4.9,0-8.9-4-8.9-8.9v-0.4c0-4.9,4-8.9,8.9-8.9c4.9,0,8.9,4,8.9,8.9v0.9
				c0,1.1-0.9,1.9-1.9,1.9c-1.1,0-1.9-0.9-1.9-1.9v-1.8c0-3.1-2.5-5.5-5.5-5.5c-3.1,0-5.5,2.5-5.5,5.5c0,3.1,2.5,5.5,5.5,5.5
				c1.4,0,2.7-0.5,3.6-1.4c0.8,1.3,2.2,2.1,3.8,2.1c2.5,0,4.5-2,4.5-4.5v-0.9c0-6.3-5.2-11.5-11.5-11.5c-6.3,0-11.5,5.2-11.5,11.5
				v0.4C-89.4-62.9-84.3-57.7-77.9-57.7z"/>
		</defs>
		<clipPath id="SVGID_14_">
			<use xlink:href="#SVGID_13_"  style="overflow:visible;"/>
		</clipPath>
		<g class="st19">
			<defs>
				<rect id="SVGID_15_" x="-611.7" y="-842.2" width="1058.3" height="1313.9"/>
			</defs>
			<clipPath id="SVGID_16_">
				<use xlink:href="#SVGID_15_"  style="overflow:visible;"/>
			</clipPath>
		</g>
	</g>
</g>
<g>
	<path class="st0" d="M34,7.4c6.8,0,13.6,2.6,18.8,7.8c10.4,10.4,10.4,27.2,0,37.6c-5.2,5.2-12,7.8-18.8,7.8
		c-6.8,0-13.6-2.6-18.8-7.8c-10.4-10.4-10.4-27.2,0-37.6C20.4,10,27.2,7.4,34,7.4 M34,5.4c-7.6,0-14.8,3-20.2,8.4
		C2.7,24.9,2.7,43,13.8,54.2c5.4,5.4,12.6,8.4,20.2,8.4c7.6,0,14.8-3,20.2-8.4c11.1-11.1,11.1-29.3,0-40.4C48.8,8.3,41.7,5.4,34,5.4
		L34,5.4z"/>
</g>
<g>
	<path class="st0" d="M34,13.2c5.5,0,10.8,2.2,14.7,6.1c8.1,8.1,8.1,21.3,0,29.4c-3.9,3.9-9.1,6.1-14.7,6.1
		c-5.5,0-10.8-2.2-14.7-6.1c-8.1-8.1-8.1-21.3,0-29.4C23.3,15.3,28.5,13.2,34,13.2 M34,11.2c-5.8,0-11.7,2.2-16.1,6.7
		C9,26.7,9,41.2,17.9,50c4.4,4.4,10.3,6.7,16.1,6.7c5.8,0,11.7-2.2,16.1-6.7c8.9-8.9,8.9-23.3,0-32.2C45.7,13.4,39.8,11.2,34,11.2
		L34,11.2z"/>
</g>
<g>
	<path class="st0" d="M67.5,73.7c-0.3,0-0.5-0.1-0.7-0.3L53.3,60c-0.4-0.4-0.4-1,0-1.4l5.4-5.4c0.4-0.4,1-0.4,1.4,0l13.4,13.4
		c0.4,0.4,0.4,1,0,1.4l-5.4,5.4C68,73.6,67.7,73.7,67.5,73.7z M55.4,59.2l12,12l4-4l-12-12L55.4,59.2z"/>
</g>
<g>
	<rect x="53.8" y="51.9" transform="matrix(0.6947 -0.7193 0.7193 0.6947 -22.59 56.1102)" class="st0" width="2" height="5.5"/>
</g>
<g>
	<g>
		<path class="st4" d="M49.3,41.6H18.7c-0.6,0-1-0.4-1-1s0.4-1,1-1h30.7c0.6,0,1,0.4,1,1S49.9,41.6,49.3,41.6z"/>
	</g>
	<g>
		<path class="st4" d="M26.6,41.6h-4.2c-1,0-1.8-0.8-1.8-1.8v-9.4c0-1,0.8-1.8,1.8-1.8h4.2c1,0,1.8,0.8,1.8,1.8v9.4
			C28.4,40.7,27.6,41.6,26.6,41.6z M22.6,39.6h3.8v-9.1h-3.8V39.6z"/>
	</g>
	<g>
		<path class="st4" d="M46,41.6h-4.2c-1,0-1.8-0.8-1.8-1.8v-5.7c0-1,0.8-1.8,1.8-1.8H46c1,0,1.8,0.8,1.8,1.8v5.7
			C47.8,40.7,47,41.6,46,41.6z M42,39.6h3.8v-5.3H42V39.6z"/>
	</g>
	<g>
		<path class="st4" d="M36.3,41.6h-4.2c-1,0-1.8-0.8-1.8-1.8v-15c0-1,0.8-1.8,1.8-1.8h4.2c1,0,1.8,0.8,1.8,1.8v15
			C38.1,40.7,37.3,41.6,36.3,41.6z M32.3,39.6h3.8V24.9h-3.8V39.6z"/>
	</g>
</g>
</svg>
