<?xml version="1.0" encoding="utf-8"?>
<!-- Generator: Adobe Illustrator 21.0.1, SVG Export Plug-In . SVG Version: 6.00 Build 0)  -->
<svg version="1.1" id="Layer_1" xmlns="http://www.w3.org/2000/svg" xmlns:xlink="http://www.w3.org/1999/xlink" x="0px" y="0px"
	 viewBox="0 0 80 80" style="enable-background:new 0 0 80 80;" xml:space="preserve">
<style type="text/css">
	.st0{fill:#39314C;}
	.st1{fill:#FFFFFF;}
	.st2{fill:none;stroke:#48E584;stroke-width:2;stroke-linejoin:round;stroke-miterlimit:10;}
	.st3{fill:none;stroke:#39314C;stroke-width:2;stroke-linejoin:round;stroke-miterlimit:10;}
	.st4{fill:#48E584;}
	.st5{fill:none;stroke:#39314C;stroke-width:2;stroke-miterlimit:10;}
	.st6{fill:none;stroke:#48E584;stroke-width:2;stroke-linecap:round;stroke-miterlimit:10;}
	.st7{fill:none;stroke:#39314C;stroke-width:2;stroke-linecap:round;stroke-miterlimit:10;}
	.st8{clip-path:url(#SVGID_2_);}
	.st9{clip-path:url(#SVGID_4_);fill:#39314C;}
	.st10{clip-path:url(#SVGID_6_);}
	.st11{clip-path:url(#SVGID_8_);fill:#39314C;}
	.st12{fill:none;stroke:#39314C;stroke-width:1.9425;stroke-miterlimit:10;}
	.st13{fill-rule:evenodd;clip-rule:evenodd;fill:#39314C;}
	.st14{fill-rule:evenodd;clip-rule:evenodd;fill:none;stroke:#39314C;stroke-width:2;stroke-miterlimit:10;}
	.st15{fill-rule:evenodd;clip-rule:evenodd;fill:#39314C;stroke:#39314C;stroke-width:1.6222;stroke-miterlimit:10;}
	.st16{clip-path:url(#SVGID_10_);}
	.st17{clip-path:url(#SVGID_12_);}
	.st18{fill:#FFFFFF;stroke:#39314C;stroke-width:2;stroke-linejoin:round;stroke-miterlimit:10;}
	.st19{clip-path:url(#SVGID_14_);}
	.st20{clip-path:url(#SVGID_16_);fill:#48E584;}
	.st21{fill:#39314C;stroke:#39314C;stroke-width:2;stroke-miterlimit:10;}
	.st22{fill:#48E584;stroke:#48E584;stroke-linecap:round;stroke-miterlimit:10;}
	.st23{fill:#39314C;stroke:#39314C;stroke-miterlimit:10;}
	.st24{fill:#48E584;stroke:#48E584;stroke-width:2;stroke-linecap:round;stroke-miterlimit:10;}
	.st25{fill:#FFFFFF;stroke:#48E584;stroke-width:2;stroke-linecap:round;stroke-linejoin:round;stroke-miterlimit:10;}
	.st26{fill:#FFFFFF;stroke:#39314C;stroke-width:2;stroke-miterlimit:10;}
	.st27{fill:#FFFFFF;stroke:#39314C;stroke-width:2;stroke-linecap:round;stroke-miterlimit:10;}
	.st28{fill:#48E584;stroke:#39314C;stroke-width:2;stroke-miterlimit:10;}
	.st29{fill:none;stroke:#39314C;stroke-width:3;stroke-miterlimit:10;}
	.st30{fill:none;stroke:#39314C;stroke-width:3;stroke-linejoin:round;stroke-miterlimit:10;}
</style>
<g>
	<defs>
		<path id="SVGID_1_" d="M-551.8-187c-0.9,0-1.5,0.7-1.5,1.5v20.5c0,0.9,0.7,1.5,1.5,1.5s1.5-0.7,1.5-1.5v-20.5
			C-550.3-186.4-550.9-187-551.8-187z"/>
	</defs>
	<clipPath id="SVGID_2_">
		<use xlink:href="#SVGID_1_"  style="overflow:visible;"/>
	</clipPath>
	<g class="st8">
		<defs>
			<rect id="SVGID_3_" x="-1273.6" y="-926.6" width="1366" height="1696"/>
		</defs>
		<clipPath id="SVGID_4_">
			<use xlink:href="#SVGID_3_"  style="overflow:visible;"/>
		</clipPath>
	</g>
</g>
<g>
	<defs>
		<path id="SVGID_5_" d="M-551.8-160.8c-0.9,0-1.5,0.7-1.5,1.5v8.2c0,0.9,0.7,1.5,1.5,1.5s1.5-0.7,1.5-1.5v-8.2
			C-550.3-160.1-550.9-160.8-551.8-160.8z"/>
	</defs>
	<clipPath id="SVGID_6_">
		<use xlink:href="#SVGID_5_"  style="overflow:visible;"/>
	</clipPath>
	<g class="st10">
		<defs>
			<rect id="SVGID_7_" x="-1273.6" y="-926.6" width="1366" height="1696"/>
		</defs>
		<clipPath id="SVGID_8_">
			<use xlink:href="#SVGID_7_"  style="overflow:visible;"/>
		</clipPath>
	</g>
</g>
<g>
	<defs>
		<path id="SVGID_9_" d="M-201.4,32.8c-1.6,0-3-1.3-3-3s1.3-3,3-3s3,1.3,3,3S-199.7,32.8-201.4,32.8z M-200.9,42.5h10.2
			c0.7,0,1.3-0.6,1.3-1.3c0-0.7-0.6-1.3-1.3-1.3h-10.2c-4.9,0-8.9-4-8.9-8.9v-0.4c0-4.9,4-8.9,8.9-8.9c4.9,0,8.9,4,8.9,8.9v0.9
			c0,1.1-0.9,1.9-1.9,1.9c-1.1,0-1.9-0.9-1.9-1.9v-1.8c0-3.1-2.5-5.5-5.5-5.5s-5.5,2.5-5.5,5.5c0,3.1,2.5,5.5,5.5,5.5
			c1.4,0,2.7-0.5,3.6-1.4c0.8,1.3,2.2,2.1,3.8,2.1c2.5,0,4.5-2,4.5-4.5v-0.9c0-6.3-5.2-11.5-11.5-11.5c-6.3,0-11.5,5.2-11.5,11.5V31
			C-212.4,37.4-207.3,42.5-200.9,42.5z"/>
	</defs>
	<clipPath id="SVGID_10_">
		<use xlink:href="#SVGID_9_"  style="overflow:visible;"/>
	</clipPath>
	<g class="st16">
		<defs>
			<rect id="SVGID_11_" x="-734.7" y="-742" width="1058.3" height="1313.9"/>
		</defs>
		<clipPath id="SVGID_12_">
			<use xlink:href="#SVGID_11_"  style="overflow:visible;"/>
		</clipPath>
	</g>
</g>
<g>
	<g>
		<defs>
			<path id="SVGID_13_" d="M-201.6-67.5c-1.6,0-3-1.3-3-3s1.3-3,3-3c1.6,0,3,1.3,3,3S-199.9-67.5-201.6-67.5z M-201.1-57.7h10.2
				c0.7,0,1.3-0.6,1.3-1.3c0-0.7-0.6-1.3-1.3-1.3h-10.2c-4.9,0-8.9-4-8.9-8.9v-0.4c0-4.9,4-8.9,8.9-8.9s8.9,4,8.9,8.9v0.9
				c0,1.1-0.9,1.9-1.9,1.9s-1.9-0.9-1.9-1.9v-1.8c0-3.1-2.5-5.5-5.5-5.5c-3.1,0-5.5,2.5-5.5,5.5c0,3.1,2.5,5.5,5.5,5.5
				c1.4,0,2.7-0.5,3.6-1.4c0.8,1.3,2.2,2.1,3.8,2.1c2.5,0,4.5-2,4.5-4.5v-0.9c0-6.3-5.2-11.5-11.5-11.5s-11.5,5.2-11.5,11.5v0.4
				C-212.6-62.9-207.4-57.7-201.1-57.7z"/>
		</defs>
		<clipPath id="SVGID_14_">
			<use xlink:href="#SVGID_13_"  style="overflow:visible;"/>
		</clipPath>
		<g class="st19">
			<defs>
				<rect id="SVGID_15_" x="-734.9" y="-842.2" width="1058.3" height="1313.9"/>
			</defs>
			<clipPath id="SVGID_16_">
				<use xlink:href="#SVGID_15_"  style="overflow:visible;"/>
			</clipPath>
		</g>
	</g>
</g>
<path class="st7" d="M15.5,65.2c13.6,13.6,35.6,13.6,49.2,0C76,53.9,77.9,36.7,70.3,23.4"/>
<path class="st6" d="M64.7,16C51.1,2.4,29,2.4,15.5,16C5,26.4,2.6,41.9,8.3,54.7"/>
<path class="st24" d="M58.7,18.4l7.7,0c0.2,0,0.4-0.2,0.4-0.4v-7.7c0-0.3-0.4-0.5-0.7-0.3l-7.7,7.7C58.2,18,58.4,18.4,58.7,18.4z"/>
<path class="st21" d="M19.1,60.6l-7.7,0c-0.2,0-0.4,0.2-0.4,0.4v7.7c0,0.3,0.4,0.5,0.7,0.3l7.7-7.7C19.6,61.1,19.4,60.6,19.1,60.6z"
	/>
</svg>
