<?xml version="1.0" encoding="utf-8"?>
<!-- Generator: Adobe Illustrator 21.0.1, SVG Export Plug-In . SVG Version: 6.00 Build 0)  -->
<svg version="1.1" id="Layer_1" xmlns="http://www.w3.org/2000/svg" xmlns:xlink="http://www.w3.org/1999/xlink" x="0px" y="0px"
	 viewBox="0 0 80 80" style="enable-background:new 0 0 80 80;" xml:space="preserve">
<style type="text/css">
	.st0{fill:#39314C;}
	.st1{fill:#FFFFFF;}
	.st2{fill:none;stroke:#48E584;stroke-width:2;stroke-linejoin:round;stroke-miterlimit:10;}
	.st3{fill:none;stroke:#39314C;stroke-width:2;stroke-linejoin:round;stroke-miterlimit:10;}
	.st4{fill:#48E584;}
	.st5{fill:none;stroke:#39314C;stroke-width:2;stroke-miterlimit:10;}
	.st6{fill:none;stroke:#48E584;stroke-width:2;stroke-linecap:round;stroke-miterlimit:10;}
	.st7{fill:none;stroke:#39314C;stroke-width:2;stroke-linecap:round;stroke-miterlimit:10;}
	.st8{clip-path:url(#SVGID_2_);}
	.st9{clip-path:url(#SVGID_4_);fill:#39314C;}
	.st10{clip-path:url(#SVGID_6_);}
	.st11{clip-path:url(#SVGID_8_);fill:#39314C;}
	.st12{fill:none;stroke:#39314C;stroke-width:1.9425;stroke-miterlimit:10;}
	.st13{fill-rule:evenodd;clip-rule:evenodd;fill:#39314C;}
	.st14{fill-rule:evenodd;clip-rule:evenodd;fill:none;stroke:#39314C;stroke-width:2;stroke-miterlimit:10;}
	.st15{fill-rule:evenodd;clip-rule:evenodd;fill:#39314C;stroke:#39314C;stroke-width:1.6222;stroke-miterlimit:10;}
	.st16{clip-path:url(#SVGID_10_);}
	.st17{clip-path:url(#SVGID_12_);}
	.st18{fill:#FFFFFF;stroke:#39314C;stroke-width:2;stroke-linejoin:round;stroke-miterlimit:10;}
	.st19{clip-path:url(#SVGID_14_);}
	.st20{clip-path:url(#SVGID_16_);fill:#48E584;}
	.st21{fill:#39314C;stroke:#39314C;stroke-width:2;stroke-miterlimit:10;}
	.st22{fill:#48E584;stroke:#48E584;stroke-linecap:round;stroke-miterlimit:10;}
	.st23{fill:#39314C;stroke:#39314C;stroke-miterlimit:10;}
	.st24{fill:#48E584;stroke:#48E584;stroke-width:2;stroke-linecap:round;stroke-miterlimit:10;}
	.st25{fill:#FFFFFF;stroke:#48E584;stroke-width:2;stroke-linecap:round;stroke-linejoin:round;stroke-miterlimit:10;}
	.st26{fill:#FFFFFF;stroke:#39314C;stroke-width:2;stroke-miterlimit:10;}
	.st27{fill:#FFFFFF;stroke:#39314C;stroke-width:2;stroke-linecap:round;stroke-miterlimit:10;}
	.st28{fill:#48E584;stroke:#39314C;stroke-width:2;stroke-miterlimit:10;}
	.st29{fill:none;stroke:#39314C;stroke-width:3;stroke-miterlimit:10;}
	.st30{fill:none;stroke:#39314C;stroke-width:3;stroke-linejoin:round;stroke-miterlimit:10;}
</style>
<g>
	<defs>
		<path id="SVGID_1_" d="M-49.9-187c-0.9,0-1.5,0.7-1.5,1.5v20.5c0,0.9,0.7,1.5,1.5,1.5c0.9,0,1.5-0.7,1.5-1.5v-20.5
			C-48.3-186.4-49-187-49.9-187z"/>
	</defs>
	<clipPath id="SVGID_2_">
		<use xlink:href="#SVGID_1_"  style="overflow:visible;"/>
	</clipPath>
	<g class="st8">
		<defs>
			<rect id="SVGID_3_" x="-771.7" y="-926.6" width="1366" height="1696"/>
		</defs>
		<clipPath id="SVGID_4_">
			<use xlink:href="#SVGID_3_"  style="overflow:visible;"/>
		</clipPath>
	</g>
</g>
<g>
	<defs>
		<path id="SVGID_5_" d="M-49.9-160.8c-0.9,0-1.5,0.7-1.5,1.5v8.2c0,0.9,0.7,1.5,1.5,1.5c0.9,0,1.5-0.7,1.5-1.5v-8.2
			C-48.3-160.1-49-160.8-49.9-160.8z"/>
	</defs>
	<clipPath id="SVGID_6_">
		<use xlink:href="#SVGID_5_"  style="overflow:visible;"/>
	</clipPath>
	<g class="st10">
		<defs>
			<rect id="SVGID_7_" x="-771.7" y="-926.6" width="1366" height="1696"/>
		</defs>
		<clipPath id="SVGID_8_">
			<use xlink:href="#SVGID_7_"  style="overflow:visible;"/>
		</clipPath>
	</g>
</g>
<g>
	<path class="st0" d="M21.6,74c-7.3,0-13.3-6-13.3-13.3c0-7.3,5.9-13.2,13.2-13.3l3.4,0l0.5-3.3c0.7-4.1,2.8-7.9,6-10.6
		c3.2-2.8,7.3-4.3,11.5-4.3c6.8,0,12.9,3.8,15.9,9.9l1.1,2.3l2.8-0.1c9,0,16.3,7.3,16.3,16.3c0,9-7.3,16.3-16.3,16.3
		c-3.4,0-11.3,0-19.2,0.1l-2,0C33.4,74,25,74,21.6,74z M42.9,31.2c-3.8,0-7.4,1.3-10.2,3.8c-2.8,2.4-4.7,5.8-5.3,9.4l-0.8,5l-5.1,0
		c-6.2,0-11.2,5.1-11.2,11.3C10.3,67,15.3,72,21.6,72c3.4,0,11.8,0,19.9-0.1l2,0c7.9,0,15.9-0.1,19.2-0.1c7.9,0,14.3-6.4,14.3-14.3
		c0-7.9-6.4-14.3-14.3-14.3l-0.3,0l-3.8,0.1L57,40C54.3,34.6,48.9,31.2,42.9,31.2z"/>
</g>
<g>
	<g>
		<path class="st0" d="M11.7,60c-6,0-10.9-4.9-10.9-10.9c0-6,4.9-10.9,10.8-10.9l1.9,0l0.3-1.9c0.5-3.3,2.2-6.4,4.8-8.6
			c2.6-2.2,5.9-3.4,9.3-3.4c5.5,0,10.4,3.1,12.8,8l0.6,1.3l1.6,0c7.3,0,13.3,5.9,13.3,13.2c0,0.9-0.7,1.6-1.6,1.6S53,47.5,53,46.7
			c0-5.5-4.5-10.1-10.1-10.1l-3.6,0.1l-1.5-3c-1.9-3.8-5.7-6.2-10-6.2c-2.7,0-5.3,1-7.3,2.7c-2,1.7-3.3,4.1-3.8,6.7l-0.7,4.5l-4.5,0
			c-4.3,0-7.7,3.5-7.7,7.8c0,4.3,3.5,7.8,7.8,7.8c2.4,0,8.3,0,14.1,0l1.6,0c0.9,0,1.6,0.7,1.6,1.6c0,0.9-0.7,1.6-1.6,1.6l-0.8,0
			C20.4,60,14.2,60,11.7,60z"/>
	</g>
	<g>
		<path class="st1" d="M27.9,24.8c5.3,0,10,3,12.4,7.7L41,34l1.9,0c7.1,0,12.8,5.7,12.8,12.7c0,0.6-0.5,1.1-1.1,1.1
			s-1.1-0.5-1.1-1.1c0-5.8-4.7-10.6-10.6-10.6l-3.3,0.1l-1.4-2.8c-2-4-6-6.5-10.5-6.5c-2.8,0-5.5,1-7.6,2.8c-2.1,1.8-3.5,4.3-3.9,7
			l-0.7,4l-4.1,0c-4.5,0-8.2,3.8-8.2,8.3c0,4.6,3.7,8.3,8.3,8.3c2.5,0,8.8,0,14.9,0l0.8,0c0,0,0,0,0,0c0.6,0,1.1,0.5,1.1,1.1
			c0,0.6-0.5,1.1-1.1,1.1l-0.8,0c-6.1,0-12.3,0-14.9,0c-5.7,0-10.4-4.7-10.4-10.4c0-5.7,4.6-10.4,10.3-10.4l2.3,0l0.4-2.3
			c0.5-3.2,2.2-6.1,4.6-8.3C21.4,26,24.6,24.8,27.9,24.8 M27.9,23.8c-3.5,0-7,1.3-9.6,3.6c-2.7,2.3-4.4,5.4-5,8.9L13,37.6l-1.5,0
			c-6.2,0-11.3,5.2-11.3,11.4c0,6.3,5.1,11.4,11.4,11.4c2.5,0,8.8,0,14.9,0l0.8,0c1.1,0,2.1-0.9,2.1-2.1c0-1.1-0.9-2.1-2.1-2.1
			l-0.8,0c-6.1,0-12.3,0-14.8,0c-4,0-7.3-3.3-7.3-7.3c0-4,3.2-7.3,7.2-7.3l4.1,0l0.8,0l0.1-0.8l0.7-4c0.4-2.5,1.7-4.7,3.6-6.4
			c1.9-1.7,4.4-2.6,6.9-2.6c4.1,0,7.8,2.3,9.6,6l1.4,2.8l0.3,0.6l0.6,0l3.3-0.1c5.3,0,9.5,4.3,9.5,9.6c0,1.1,0.9,2.1,2.1,2.1
			s2.1-0.9,2.1-2.1c0-7.5-6.2-13.7-13.8-13.7l-1.3,0l-0.5-1C38.6,26.9,33.5,23.8,27.9,23.8L27.9,23.8z"/>
	</g>
</g>
<g>
	<circle class="st13" cx="27.4" cy="58.4" r="3"/>
	<path class="st0" d="M27.4,62.2c-2.1,0-3.8-1.7-3.8-3.8s1.7-3.8,3.8-3.8s3.8,1.7,3.8,3.8S29.5,62.2,27.4,62.2z M27.4,56.2
		c-1.2,0-2.2,1-2.2,2.2s1,2.2,2.2,2.2s2.2-1,2.2-2.2S28.6,56.2,27.4,56.2z"/>
</g>
<g>
	<path class="st0" d="M64.9,9.6c5.2,0,9.5,4.3,9.5,9.5c0,5.2-4.3,9.5-9.5,9.5s-9.5-4.3-9.5-9.5C55.3,13.9,59.6,9.6,64.9,9.6
		 M64.9,7.6c-6.4,0-11.5,5.1-11.5,11.5s5.1,11.5,11.5,11.5c6.4,0,11.5-5.1,11.5-11.5S71.2,7.6,64.9,7.6L64.9,7.6z"/>
</g>
<g>
	<g>
		<path class="st4" d="M60,19.8c-0.6-0.6-0.6-1.5,0-2.1c0.3-0.3,0.7-0.4,1.1-0.4s0.8,0.2,1.1,0.4l2.5,2.5L75.3,9.5
			c0.3-0.3,0.7-0.4,1.1-0.4s0.8,0.2,1.1,0.4s0.4,0.7,0.4,1.1s-0.2,0.8-0.4,1.1L64.6,24.5L60,19.8z"/>
	</g>
	<g>
		<path class="st1" d="M76.4,9.6c0.3,0,0.5,0.1,0.7,0.3c0.4,0.4,0.4,1,0,1.4L64.6,23.7l-4.3-4.3c-0.4-0.4-0.4-1,0-1.4
			c0.2-0.2,0.5-0.3,0.7-0.3s0.5,0.1,0.7,0.3l2.8,2.8L75.6,9.9C75.8,9.7,76.1,9.6,76.4,9.6 M76.4,8.6c-0.5,0-1,0.2-1.4,0.6L64.6,19.5
			l-2.1-2.1c-0.4-0.4-0.9-0.6-1.4-0.6c-0.5,0-1,0.2-1.4,0.6c-0.8,0.8-0.8,2,0,2.8l4.3,4.3l0.7,0.7l0.7-0.7L77.8,12
			c0.4-0.4,0.6-0.9,0.6-1.4s-0.2-1-0.6-1.4C77.4,8.8,76.9,8.6,76.4,8.6L76.4,8.6z"/>
	</g>
</g>
<g>
	<defs>
		<path id="SVGID_9_" d="M300.5,32.8c-1.6,0-3-1.3-3-3s1.3-3,3-3c1.6,0,3,1.3,3,3S302.2,32.8,300.5,32.8z M301,42.5h10.2
			c0.7,0,1.3-0.6,1.3-1.3c0-0.7-0.6-1.3-1.3-1.3H301c-4.9,0-8.9-4-8.9-8.9v-0.4c0-4.9,4-8.9,8.9-8.9c4.9,0,8.9,4,8.9,8.9v0.9
			c0,1.1-0.9,1.9-1.9,1.9s-1.9-0.9-1.9-1.9v-1.8c0-3.1-2.5-5.5-5.5-5.5s-5.5,2.5-5.5,5.5c0,3.1,2.5,5.5,5.5,5.5
			c1.4,0,2.7-0.5,3.6-1.4c0.8,1.3,2.2,2.1,3.8,2.1c2.5,0,4.5-2,4.5-4.5v-0.9c0-6.3-5.2-11.5-11.5-11.5c-6.3,0-11.5,5.2-11.5,11.5V31
			C289.5,37.4,294.7,42.5,301,42.5z"/>
	</defs>
	<clipPath id="SVGID_10_">
		<use xlink:href="#SVGID_9_"  style="overflow:visible;"/>
	</clipPath>
	<g class="st16">
		<defs>
			<rect id="SVGID_11_" x="-232.8" y="-742" width="1058.3" height="1313.9"/>
		</defs>
		<clipPath id="SVGID_12_">
			<use xlink:href="#SVGID_11_"  style="overflow:visible;"/>
		</clipPath>
	</g>
</g>
<g>
	<g>
		<defs>
			<path id="SVGID_13_" d="M300.4-67.5c-1.6,0-3-1.3-3-3s1.3-3,3-3c1.6,0,3,1.3,3,3S302-67.5,300.4-67.5z M300.8-57.7h10.2
				c0.7,0,1.3-0.6,1.3-1.3c0-0.7-0.6-1.3-1.3-1.3h-10.2c-4.9,0-8.9-4-8.9-8.9v-0.4c0-4.9,4-8.9,8.9-8.9s8.9,4,8.9,8.9v0.9
				c0,1.1-0.9,1.9-1.9,1.9s-1.9-0.9-1.9-1.9v-1.8c0-3.1-2.5-5.5-5.5-5.5s-5.5,2.5-5.5,5.5c0,3.1,2.5,5.5,5.5,5.5
				c1.4,0,2.7-0.5,3.6-1.4c0.8,1.3,2.2,2.1,3.8,2.1c2.5,0,4.5-2,4.5-4.5v-0.9c0-6.3-5.2-11.5-11.5-11.5s-11.5,5.2-11.5,11.5v0.4
				C289.3-62.9,294.5-57.7,300.8-57.7z"/>
		</defs>
		<clipPath id="SVGID_14_">
			<use xlink:href="#SVGID_13_"  style="overflow:visible;"/>
		</clipPath>
		<g class="st19">
			<defs>
				<rect id="SVGID_15_" x="-232.9" y="-842.2" width="1058.3" height="1313.9"/>
			</defs>
			<clipPath id="SVGID_16_">
				<use xlink:href="#SVGID_15_"  style="overflow:visible;"/>
			</clipPath>
		</g>
	</g>
</g>
</svg>
