<?xml version="1.0" encoding="utf-8"?>
<!-- Generator: Adobe Illustrator 21.0.1, SVG Export Plug-In . SVG Version: 6.00 Build 0)  -->
<svg version="1.1" id="Layer_1" xmlns="http://www.w3.org/2000/svg" xmlns:xlink="http://www.w3.org/1999/xlink" x="0px" y="0px"
	 viewBox="0 0 80 80" style="enable-background:new 0 0 80 80;" xml:space="preserve">
<style type="text/css">
	.st0{fill:#39314C;}
	.st1{fill:#FFFFFF;}
	.st2{fill:none;stroke:#48E584;stroke-width:2;stroke-linejoin:round;stroke-miterlimit:10;}
	.st3{fill:none;stroke:#39314C;stroke-width:2;stroke-linejoin:round;stroke-miterlimit:10;}
	.st4{fill:#48E584;}
	.st5{fill:none;stroke:#39314C;stroke-width:2;stroke-miterlimit:10;}
	.st6{fill:none;stroke:#48E584;stroke-width:2;stroke-linecap:round;stroke-miterlimit:10;}
	.st7{fill:none;stroke:#39314C;stroke-width:2;stroke-linecap:round;stroke-miterlimit:10;}
	.st8{clip-path:url(#SVGID_2_);}
	.st9{clip-path:url(#SVGID_4_);fill:#39314C;}
	.st10{clip-path:url(#SVGID_6_);}
	.st11{clip-path:url(#SVGID_8_);fill:#39314C;}
	.st12{fill:none;stroke:#39314C;stroke-width:1.9425;stroke-miterlimit:10;}
	.st13{fill-rule:evenodd;clip-rule:evenodd;fill:#39314C;}
	.st14{fill-rule:evenodd;clip-rule:evenodd;fill:none;stroke:#39314C;stroke-width:2;stroke-miterlimit:10;}
	.st15{fill-rule:evenodd;clip-rule:evenodd;fill:#39314C;stroke:#39314C;stroke-width:1.6222;stroke-miterlimit:10;}
	.st16{clip-path:url(#SVGID_10_);}
	.st17{clip-path:url(#SVGID_12_);}
	.st18{fill:#FFFFFF;stroke:#39314C;stroke-width:2;stroke-linejoin:round;stroke-miterlimit:10;}
	.st19{clip-path:url(#SVGID_14_);}
	.st20{clip-path:url(#SVGID_16_);fill:#48E584;}
	.st21{fill:#39314C;stroke:#39314C;stroke-width:2;stroke-miterlimit:10;}
	.st22{fill:#48E584;stroke:#48E584;stroke-linecap:round;stroke-miterlimit:10;}
	.st23{fill:#39314C;stroke:#39314C;stroke-miterlimit:10;}
	.st24{fill:#48E584;stroke:#48E584;stroke-width:2;stroke-linecap:round;stroke-miterlimit:10;}
	.st25{fill:#FFFFFF;stroke:#48E584;stroke-width:2;stroke-linecap:round;stroke-linejoin:round;stroke-miterlimit:10;}
	.st26{fill:#FFFFFF;stroke:#39314C;stroke-width:2;stroke-miterlimit:10;}
	.st27{fill:#FFFFFF;stroke:#39314C;stroke-width:2;stroke-linecap:round;stroke-miterlimit:10;}
	.st28{fill:#48E584;stroke:#39314C;stroke-width:2;stroke-miterlimit:10;}
	.st29{fill:none;stroke:#39314C;stroke-width:3;stroke-miterlimit:10;}
	.st30{fill:none;stroke:#39314C;stroke-width:3;stroke-linejoin:round;stroke-miterlimit:10;}
</style>
<g>
	<path class="st0" d="M76.8,2C77.5,2,78,2.5,78,3.2v73.6c0,0.7-0.5,1.2-1.2,1.2H3.2C2.5,78,2,77.5,2,76.8V3.2C2,2.5,2.5,2,3.2,2
		H76.8 M76.8,0H3.2C1.4,0,0,1.4,0,3.2v73.6C0,78.6,1.4,80,3.2,80h73.6c1.8,0,3.2-1.4,3.2-3.2V3.2C80,1.4,78.6,0,76.8,0L76.8,0z"/>
</g>
<g>
	<rect x="1.8" y="17.9" class="st0" width="76.4" height="2"/>
</g>
<g>
	<path class="st0" d="M9.9,8.2c0.9,0,1.7,0.7,1.7,1.7s-0.7,1.7-1.7,1.7s-1.7-0.7-1.7-1.7S8.9,8.2,9.9,8.2 M9.9,6.2
		c-2,0-3.7,1.6-3.7,3.7s1.6,3.7,3.7,3.7c2,0,3.7-1.6,3.7-3.7S11.9,6.2,9.9,6.2L9.9,6.2z"/>
</g>
<g>
	<path class="st0" d="M19.9,8.2c0.9,0,1.7,0.7,1.7,1.7s-0.7,1.7-1.7,1.7s-1.7-0.7-1.7-1.7S18.9,8.2,19.9,8.2 M19.9,6.2
		c-2,0-3.7,1.6-3.7,3.7s1.6,3.7,3.7,3.7c2,0,3.7-1.6,3.7-3.7S21.9,6.2,19.9,6.2L19.9,6.2z"/>
</g>
<g>
	<path class="st0" d="M29.9,8.2c0.9,0,1.7,0.7,1.7,1.7s-0.7,1.7-1.7,1.7s-1.7-0.7-1.7-1.7S28.9,8.2,29.9,8.2 M29.9,6.2
		c-2,0-3.7,1.6-3.7,3.7s1.6,3.7,3.7,3.7s3.7-1.6,3.7-3.7S31.9,6.2,29.9,6.2L29.9,6.2z"/>
</g>
<g>
	<path class="st4" d="M56.6,32.1H8.8c-0.6,0-1-0.4-1-1s0.4-1,1-1h47.9c0.6,0,1,0.4,1,1S57.2,32.1,56.6,32.1z"/>
</g>
<g>
	<path class="st4" d="M41.3,50.8H8.8c-0.6,0-1-0.4-1-1s0.4-1,1-1h32.5c0.6,0,1,0.4,1,1S41.8,50.8,41.3,50.8z"/>
</g>
<g>
	<path class="st4" d="M71.2,50.8h-13c-0.6,0-1-0.4-1-1s0.4-1,1-1h13c0.6,0,1,0.4,1,1S71.8,50.8,71.2,50.8z"/>
</g>
<g>
	<path class="st0" d="M71.2,10.9H66c-0.6,0-1-0.4-1-1s0.4-1,1-1h5.2c0.6,0,1,0.4,1,1S71.8,10.9,71.2,10.9z"/>
</g>
<g>
	<path class="st0" d="M61.5,10.9H50c-0.6,0-1-0.4-1-1s0.4-1,1-1h11.5c0.6,0,1,0.4,1,1S62.1,10.9,61.5,10.9z"/>
</g>
<g>
	<path class="st4" d="M34.6,69.5H8.8c-0.6,0-1-0.4-1-1s0.4-1,1-1h25.8c0.6,0,1,0.4,1,1S35.1,69.5,34.6,69.5z"/>
</g>
<g>
	<g>
		<rect x="39.7" y="54.5" transform="matrix(0.636 -0.7717 0.7717 0.636 -32.363 53.5632)" class="st0" width="1.8" height="13.1"/>
	</g>
	<g>
		<g>
			<rect x="61.2" y="28.1" transform="matrix(0.636 -0.7717 0.7717 0.636 -4.4439 60.739)" class="st0" width="1.9" height="13.9"/>
		</g>
		<g>
			<g>
				<path class="st0" d="M71.5,30c0.6,0.5,0.6,1.3,0.2,1.8L45.3,63.8C45.3,63.9,45.2,64,45,64l-9.6,3.3c-0.1,0-0.1,0-0.2,0
					c0,0-0.1-0.1-0.1-0.2l1.5-10.1c0-0.1,0.1-0.2,0.1-0.3l26.3-31.9c0.5-0.6,1.3-0.6,1.8-0.2L71.5,30 M72.7,28.5l-6.5-5.3
					c-1.4-1.1-3.4-0.9-4.5,0.4L35.3,55.6c-0.3,0.4-0.5,0.8-0.6,1.3l-1.5,10.1c-0.1,0.7,0.2,1.4,0.7,1.9c0.6,0.5,1.3,0.6,2,0.4
					l9.6-3.3c0.4-0.2,0.8-0.4,1.1-0.8l26.3-31.9C74.3,31.7,74.1,29.7,72.7,28.5L72.7,28.5z"/>
			</g>
			<g>
				<path class="st0" d="M35.3,63.5l3.6,3c0.1,0.1,0.1,0.3-0.1,0.3l-3.5,0.8c-0.1,0-0.2-0.1-0.2-0.2L35,63.6
					C35,63.5,35.2,63.4,35.3,63.5z"/>
			</g>
			<g>
				<g>
					<path class="st0" d="M61.9,31.4c-0.4-0.3-0.5-0.9-0.1-1.3l2.4-2.9c0.3-0.4,0.9-0.5,1.3-0.1c0.4,0.3,0.5,0.9,0.1,1.3l-2.4,2.9
						C62.9,31.7,62.3,31.7,61.9,31.4z"/>
				</g>
			</g>
			<g>
				<path class="st0" d="M38.4,59.8c-0.4-0.3-0.5-0.9-0.1-1.3l21.1-25.6c0.3-0.4,0.9-0.5,1.3-0.1c0.4,0.3,0.5,0.9,0.1,1.3L39.8,59.7
					C39.5,60.1,38.8,60.1,38.4,59.8z"/>
			</g>
			<g>
				<path class="st0" d="M42,62.8c-0.4-0.3-0.5-0.9-0.1-1.3L63,35.8c0.3-0.4,0.9-0.5,1.3-0.1s0.5,0.9,0.1,1.3L43.4,62.7
					C43.1,63.1,42.5,63.1,42,62.8z"/>
			</g>
		</g>
	</g>
</g>
<g>
	<defs>
		<path id="SVGID_1_" d="M533.5-187c-0.9,0-1.5,0.7-1.5,1.5v20.5c0,0.9,0.7,1.5,1.5,1.5s1.5-0.7,1.5-1.5v-20.5
			C535-186.4,534.4-187,533.5-187z"/>
	</defs>
	<clipPath id="SVGID_2_">
		<use xlink:href="#SVGID_1_"  style="overflow:visible;"/>
	</clipPath>
	<g class="st8">
		<defs>
			<rect id="SVGID_3_" x="-188.3" y="-926.6" width="1366" height="1696"/>
		</defs>
		<clipPath id="SVGID_4_">
			<use xlink:href="#SVGID_3_"  style="overflow:visible;"/>
		</clipPath>
	</g>
</g>
<g>
	<defs>
		<path id="SVGID_5_" d="M533.5-160.8c-0.9,0-1.5,0.7-1.5,1.5v8.2c0,0.9,0.7,1.5,1.5,1.5s1.5-0.7,1.5-1.5v-8.2
			C535-160.1,534.4-160.8,533.5-160.8z"/>
	</defs>
	<clipPath id="SVGID_6_">
		<use xlink:href="#SVGID_5_"  style="overflow:visible;"/>
	</clipPath>
	<g class="st10">
		<defs>
			<rect id="SVGID_7_" x="-188.3" y="-926.6" width="1366" height="1696"/>
		</defs>
		<clipPath id="SVGID_8_">
			<use xlink:href="#SVGID_7_"  style="overflow:visible;"/>
		</clipPath>
	</g>
</g>
</svg>
