<?xml version="1.0" encoding="utf-8"?>
<!-- Generator: Adobe Illustrator 21.0.2, SVG Export Plug-In . SVG Version: 6.00 Build 0)  -->
<svg version="1.1" id="Layer_1" xmlns="http://www.w3.org/2000/svg" xmlns:xlink="http://www.w3.org/1999/xlink" x="0px" y="0px"
	 viewBox="0 0 80 80" style="enable-background:new 0 0 80 80;" xml:space="preserve">
<style type="text/css">
	.st0{fill:#39314C;}
	.st1{opacity:0.3;}
	.st2{fill:#998DB2;}
	.st3{fill:#48E584;}
</style>
<g>
	<g>
		<defs>
			<path id="SVGID_1_" d="M182.1-534.6c-0.9,0-1.5,0.7-1.5,1.5v20.5c0,0.9,0.7,1.5,1.5,1.5s1.5-0.7,1.5-1.5V-533
				C183.7-533.9,183-534.6,182.1-534.6z"/>
		</defs>
		<clipPath id="SVGID_2_">
			<use xlink:href="#SVGID_1_"  style="overflow:visible;"/>
		</clipPath>
	</g>
</g>
<g>
	<g>
		<defs>
			<path id="SVGID_3_" d="M182.1-508.3c-0.9,0-1.5,0.7-1.5,1.5v8.2c0,0.9,0.7,1.5,1.5,1.5s1.5-0.7,1.5-1.5v-8.2
				C183.7-507.6,183-508.3,182.1-508.3z"/>
		</defs>
		<clipPath id="SVGID_4_">
			<use xlink:href="#SVGID_3_"  style="overflow:visible;"/>
		</clipPath>
	</g>
</g>
<g>
	<g>
		<defs>
			<path id="SVGID_5_" d="M532.5-436.5c-1.6,0-3-1.3-3-3c0-1.6,1.3-3,3-3s3,1.3,3,3C535.5-437.9,534.2-436.5,532.5-436.5z
				 M533-426.8h10.2c0.7,0,1.3-0.6,1.3-1.3c0-0.7-0.6-1.3-1.3-1.3H533c-4.9,0-8.9-4-8.9-8.9v-0.4c0-4.9,4-8.9,8.9-8.9s8.9,4,8.9,8.9
				v0.9c0,1.1-0.9,1.9-1.9,1.9s-1.9-0.9-1.9-1.9v-1.8c0-3.1-2.5-5.5-5.5-5.5s-5.5,2.5-5.5,5.5c0,3.1,2.5,5.5,5.5,5.5
				c1.4,0,2.7-0.5,3.6-1.4c0.8,1.3,2.2,2.1,3.8,2.1c2.5,0,4.5-2,4.5-4.5v-0.9c0-6.3-5.2-11.5-11.5-11.5s-11.5,5.2-11.5,11.5v0.4
				C521.5-431.9,526.7-426.8,533-426.8z"/>
		</defs>
		<clipPath id="SVGID_6_">
			<use xlink:href="#SVGID_5_"  style="overflow:visible;"/>
		</clipPath>
	</g>
</g>
<g>
	<g>
		<g>
			<defs>
				<path id="SVGID_7_" d="M532.4-536.8c-1.6,0-3-1.3-3-3c0-1.6,1.3-3,3-3s3,1.3,3,3C535.3-538.1,534-536.8,532.4-536.8z M532.8-527
					H543c0.7,0,1.3-0.6,1.3-1.3s-0.6-1.3-1.3-1.3h-10.2c-4.9,0-8.9-4-8.9-8.9v-0.4c0-4.9,4-8.9,8.9-8.9s8.9,4,8.9,8.9v0.9
					c0,1.1-0.9,1.9-1.9,1.9s-1.9-0.9-1.9-1.9v-1.8c0-3.1-2.5-5.5-5.5-5.5s-5.5,2.5-5.5,5.5c0,3.1,2.5,5.5,5.5,5.5
					c1.4,0,2.7-0.5,3.6-1.4c0.8,1.3,2.2,2.1,3.8,2.1c2.5,0,4.5-2,4.5-4.5v-0.9c0-6.3-5.2-11.5-11.5-11.5s-11.5,5.2-11.5,11.5v0.4
					C521.3-532.2,526.5-527,532.8-527z"/>
			</defs>
			<clipPath id="SVGID_8_">
				<use xlink:href="#SVGID_7_"  style="overflow:visible;"/>
			</clipPath>
		</g>
	</g>
</g>
<g>
	<circle class="st0" cx="38.6" cy="39.9" r="35.7"/>
</g>
<g class="st1">
	<g>
		<g>
			<g>
				<path d="M23.2,30.4l-0.7-7.1c0-0.1,0.1-0.2,0.2-0.2l7.1,0.7c0.1,0,0.2,0.2,0.1,0.4l-6.3,6.3C23.5,30.7,23.2,30.6,23.2,30.4z"/>
			</g>
		</g>
		<g>
			<g>
				<path d="M33.9,36c-0.2,0-0.5-0.1-0.6-0.3L24.5,27l2-2l8.8,8.8c0.2,0.2,0.3,0.5,0.3,0.8c0,0.2-0.1,0.4-0.3,0.5l-0.7,0.7
					C34.3,35.9,34.1,36,33.9,36z"/>
				<path d="M26.4,25.7l8.4,8.4c0.2,0.2,0.2,0.4,0,0.5l-0.7,0.7c0,0.1-0.1,0.1-0.2,0.1s-0.2,0-0.3-0.1L25.2,27L26.4,25.7 M26.4,24.3
					L25.7,25l-1.2,1.2L23.8,27l0.7,0.7l8.4,8.4c0.3,0.3,0.6,0.4,1,0.4c0.4,0,0.8-0.2,1-0.5l0.6-0.6c0.3-0.2,0.4-0.5,0.5-0.8
					c0.1-0.4-0.1-0.9-0.4-1.2L27.1,25L26.4,24.3L26.4,24.3z"/>
			</g>
		</g>
	</g>
	<g>
		<g>
			<g>
				<path d="M49.4,23.8l7.1-0.7c0.1,0,0.2,0.1,0.2,0.2L56,30.4c0,0.1-0.2,0.2-0.4,0.1l-6.3-6.3C49.1,24,49.3,23.8,49.4,23.8z"/>
			</g>
		</g>
		<g>
			<g>
				<path d="M45.4,36c-0.3,0-0.5-0.1-0.6-0.3L44.1,35c-0.2-0.1-0.3-0.3-0.3-0.5c0-0.3,0.1-0.6,0.3-0.8l8.8-8.8l2,2l-8.8,8.8
					C45.9,35.9,45.6,36,45.4,36z"/>
				<path d="M52.8,25.8l1.2,1.2l-8.4,8.4c-0.1,0.1-0.2,0.1-0.3,0.1s-0.2,0-0.2-0.1l-0.7-0.7c-0.2-0.1-0.2-0.3,0-0.5L52.8,25.8
					 M52.8,24.3l-0.7,0.7l-8.4,8.4c-0.3,0.3-0.5,0.8-0.4,1.2c0.1,0.3,0.2,0.6,0.5,0.8l0.6,0.6c0.2,0.3,0.6,0.5,1,0.5
					c0.4,0,0.7-0.2,1-0.4l8.4-8.4l0.7-0.7l-0.7-0.7l-1.2-1.2L52.8,24.3L52.8,24.3z"/>
			</g>
		</g>
	</g>
	<g>
		<g>
			<g>
				<path d="M56,50.8l0.7,7.1c0,0.1-0.1,0.2-0.2,0.2l-7.1-0.7c-0.1,0-0.2-0.2-0.1-0.4l6.3-6.3C55.7,50.5,56,50.6,56,50.8z"/>
			</g>
		</g>
		<g>
			<g>
				<path d="M44,47.4c-0.2-0.2-0.3-0.5-0.3-0.8c0-0.2,0.1-0.4,0.3-0.5l0.7-0.7c0.1-0.2,0.4-0.3,0.6-0.3c0.2,0,0.5,0.1,0.6,0.3
					l8.8,8.8l-2,2L44,47.4z"/>
				<path d="M45.3,45.7c0.1,0,0.2,0,0.3,0.1l8.4,8.4l-1.2,1.2l-8.4-8.4c-0.2-0.2-0.2-0.4,0-0.5l0.7-0.7
					C45.2,45.8,45.2,45.7,45.3,45.7 M45.3,44.7c-0.4,0-0.8,0.2-1,0.5l-0.6,0.6c-0.3,0.2-0.4,0.5-0.5,0.8c-0.1,0.4,0.1,0.9,0.4,1.2
					l8.4,8.4l0.7,0.7l0.7-0.7l1.2-1.2l0.7-0.7l-0.7-0.7l-8.4-8.4C46.1,44.9,45.7,44.7,45.3,44.7L45.3,44.7z"/>
			</g>
		</g>
	</g>
	<g>
		<g>
			<g>
				<path d="M29.8,57.4l-7.1,0.7c-0.1,0-0.2-0.1-0.2-0.2l0.7-7.1c0-0.1,0.2-0.2,0.4-0.1l6.3,6.3C30.1,57.2,29.9,57.4,29.8,57.4z"/>
			</g>
		</g>
		<g>
			<g>
				<path d="M24.4,54.2l8.8-8.8c0.2-0.2,0.4-0.3,0.6-0.3c0.3,0,0.5,0.1,0.6,0.3l0.7,0.7c0.2,0.1,0.3,0.3,0.3,0.5
					c0,0.3-0.1,0.6-0.3,0.8l-8.8,8.8L24.4,54.2z"/>
				<path d="M33.8,45.7c0.1,0,0.2,0,0.2,0.1l0.7,0.7c0.2,0.1,0.2,0.3,0,0.5l-8.4,8.4l-1.2-1.2l8.4-8.4
					C33.6,45.7,33.7,45.7,33.8,45.7 M33.8,44.7c-0.4,0-0.7,0.2-1,0.4l-8.4,8.4l-0.7,0.7l0.7,0.7l1.2,1.2l0.7,0.7l0.7-0.7l8.4-8.4
					c0.3-0.3,0.5-0.8,0.4-1.2c-0.1-0.3-0.2-0.6-0.5-0.8l-0.6-0.6C34.5,44.9,34.2,44.7,33.8,44.7L33.8,44.7z"/>
			</g>
		</g>
	</g>
	<g>
		<circle cx="39.8" cy="40.6" r="4.6"/>
	</g>
</g>
<g>
	<g>
		<g>
			<g>
				<path class="st2" d="M22.2,29.4l-0.7-7.1c0-0.1,0.1-0.2,0.2-0.2l7.1,0.7c0.1,0,0.2,0.2,0.1,0.4l-6.3,6.3
					C22.5,29.7,22.2,29.6,22.2,29.4z"/>
			</g>
		</g>
		<g>
			<g>
				<path class="st2" d="M32.9,35c-0.2,0-0.5-0.1-0.6-0.3L23.5,26l2-2l8.8,8.8c0.2,0.2,0.3,0.5,0.3,0.8c0,0.2-0.1,0.4-0.3,0.5
					l-0.7,0.7C33.3,34.9,33.1,35,32.9,35z"/>
				<path class="st2" d="M25.4,24.7l8.4,8.4c0.2,0.2,0.2,0.4,0,0.5l-0.7,0.7c0,0.1-0.1,0.1-0.2,0.1s-0.2,0-0.3-0.1L24.2,26
					L25.4,24.7 M25.4,23.3L24.7,24l-1.2,1.2L22.8,26l0.7,0.7l8.4,8.4c0.3,0.3,0.6,0.4,1,0.4c0.4,0,0.8-0.2,1-0.5l0.6-0.6
					c0.3-0.2,0.4-0.5,0.5-0.8c0.1-0.4-0.1-0.9-0.4-1.2L26.1,24L25.4,23.3L25.4,23.3z"/>
			</g>
		</g>
	</g>
	<g>
		<g>
			<g>
				<path class="st2" d="M48.4,22.8l7.1-0.7c0.1,0,0.2,0.1,0.2,0.2L55,29.4c0,0.1-0.2,0.2-0.4,0.1l-6.3-6.3
					C48.1,23,48.3,22.8,48.4,22.8z"/>
			</g>
		</g>
		<g>
			<g>
				<path class="st2" d="M44.4,35c-0.3,0-0.5-0.1-0.6-0.3L43.1,34c-0.2-0.1-0.3-0.3-0.3-0.5c0-0.3,0.1-0.6,0.3-0.8l8.8-8.8l2,2
					l-8.8,8.8C44.9,34.9,44.6,35,44.4,35z"/>
				<path class="st2" d="M51.8,24.8l1.2,1.2l-8.4,8.4c-0.1,0.1-0.2,0.1-0.3,0.1s-0.2,0-0.2-0.1l-0.7-0.7c-0.2-0.1-0.2-0.3,0-0.5
					L51.8,24.8 M51.8,23.3l-0.7,0.7l-8.4,8.4c-0.3,0.3-0.5,0.8-0.4,1.2c0.1,0.3,0.2,0.6,0.5,0.8l0.6,0.6c0.2,0.3,0.6,0.5,1,0.5
					c0.4,0,0.7-0.2,1-0.4l8.4-8.4l0.7-0.7l-0.7-0.7l-1.2-1.2L51.8,23.3L51.8,23.3z"/>
			</g>
		</g>
	</g>
	<g>
		<g>
			<g>
				<path class="st2" d="M55,49.8l0.7,7.1c0,0.1-0.1,0.2-0.2,0.2l-7.1-0.7c-0.1,0-0.2-0.2-0.1-0.4l6.3-6.3
					C54.7,49.5,55,49.6,55,49.8z"/>
			</g>
		</g>
		<g>
			<g>
				<path class="st2" d="M43,46.4c-0.2-0.2-0.3-0.5-0.3-0.8c0-0.2,0.1-0.4,0.3-0.5l0.7-0.7c0.1-0.2,0.4-0.3,0.6-0.3
					c0.2,0,0.5,0.1,0.6,0.3l8.8,8.8l-2,2L43,46.4z"/>
				<path class="st2" d="M44.3,44.7c0.1,0,0.2,0,0.3,0.1l8.4,8.4l-1.2,1.2l-8.4-8.4c-0.2-0.2-0.2-0.4,0-0.5l0.7-0.7
					C44.2,44.8,44.2,44.7,44.3,44.7 M44.3,43.7c-0.4,0-0.8,0.2-1,0.5l-0.6,0.6c-0.3,0.2-0.4,0.5-0.5,0.8c-0.1,0.4,0.1,0.9,0.4,1.2
					l8.4,8.4l0.7,0.7l0.7-0.7l1.2-1.2l0.7-0.7l-0.7-0.7l-8.4-8.4C45.1,43.9,44.7,43.7,44.3,43.7L44.3,43.7z"/>
			</g>
		</g>
	</g>
	<g>
		<g>
			<g>
				<path class="st2" d="M28.8,56.4l-7.1,0.7c-0.1,0-0.2-0.1-0.2-0.2l0.7-7.1c0-0.1,0.2-0.2,0.4-0.1l6.3,6.3
					C29.1,56.2,28.9,56.4,28.8,56.4z"/>
			</g>
		</g>
		<g>
			<g>
				<path class="st2" d="M23.4,53.2l8.8-8.8c0.2-0.2,0.4-0.3,0.6-0.3c0.3,0,0.5,0.1,0.6,0.3l0.7,0.7c0.2,0.1,0.3,0.3,0.3,0.5
					c0,0.3-0.1,0.6-0.3,0.8l-8.8,8.8L23.4,53.2z"/>
				<path class="st2" d="M32.8,44.7c0.1,0,0.2,0,0.2,0.1l0.7,0.7c0.2,0.1,0.2,0.3,0,0.5l-8.4,8.4l-1.2-1.2l8.4-8.4
					C32.6,44.7,32.7,44.7,32.8,44.7 M32.8,43.7c-0.4,0-0.7,0.2-1,0.4l-8.4,8.4l-0.7,0.7l0.7,0.7l1.2,1.2l0.7,0.7l0.7-0.7l8.4-8.4
					c0.3-0.3,0.5-0.8,0.4-1.2c-0.1-0.3-0.2-0.6-0.5-0.8l-0.6-0.6C33.5,43.9,33.2,43.7,32.8,43.7L32.8,43.7z"/>
			</g>
		</g>
	</g>
	<g>
		<circle class="st3" cx="38.8" cy="39.6" r="4.6"/>
	</g>
</g>
</svg>
