<?xml version="1.0" encoding="utf-8"?>
<!-- Generator: Adobe Illustrator 21.0.1, SVG Export Plug-In . SVG Version: 6.00 Build 0)  -->
<svg version="1.1" id="Layer_1" xmlns="http://www.w3.org/2000/svg" xmlns:xlink="http://www.w3.org/1999/xlink" x="0px" y="0px"
	 viewBox="0 0 80 80" style="enable-background:new 0 0 80 80;" xml:space="preserve">
<style type="text/css">
	.st0{fill:#39314C;}
	.st1{fill:#FFFFFF;}
	.st2{fill:none;stroke:#48E584;stroke-width:2;stroke-linejoin:round;stroke-miterlimit:10;}
	.st3{fill:none;stroke:#39314C;stroke-width:2;stroke-linejoin:round;stroke-miterlimit:10;}
	.st4{fill:#48E584;}
	.st5{fill:none;stroke:#39314C;stroke-width:2;stroke-miterlimit:10;}
	.st6{fill:none;stroke:#48E584;stroke-width:2;stroke-linecap:round;stroke-miterlimit:10;}
	.st7{fill:none;stroke:#39314C;stroke-width:2;stroke-linecap:round;stroke-miterlimit:10;}
	.st8{clip-path:url(#SVGID_2_);}
	.st9{clip-path:url(#SVGID_4_);fill:#39314C;}
	.st10{clip-path:url(#SVGID_6_);}
	.st11{clip-path:url(#SVGID_8_);fill:#39314C;}
	.st12{fill:none;stroke:#39314C;stroke-width:1.9425;stroke-miterlimit:10;}
	.st13{fill-rule:evenodd;clip-rule:evenodd;fill:#39314C;}
	.st14{fill-rule:evenodd;clip-rule:evenodd;fill:none;stroke:#39314C;stroke-width:2;stroke-miterlimit:10;}
	.st15{fill-rule:evenodd;clip-rule:evenodd;fill:#39314C;stroke:#39314C;stroke-width:1.6222;stroke-miterlimit:10;}
	.st16{clip-path:url(#SVGID_10_);}
	.st17{clip-path:url(#SVGID_12_);}
	.st18{fill:#FFFFFF;stroke:#39314C;stroke-width:2;stroke-linejoin:round;stroke-miterlimit:10;}
	.st19{clip-path:url(#SVGID_14_);}
	.st20{clip-path:url(#SVGID_16_);fill:#48E584;}
	.st21{fill:#39314C;stroke:#39314C;stroke-width:2;stroke-miterlimit:10;}
	.st22{fill:#48E584;stroke:#48E584;stroke-linecap:round;stroke-miterlimit:10;}
	.st23{fill:#39314C;stroke:#39314C;stroke-miterlimit:10;}
	.st24{fill:#48E584;stroke:#48E584;stroke-width:2;stroke-linecap:round;stroke-miterlimit:10;}
	.st25{fill:#FFFFFF;stroke:#48E584;stroke-width:2;stroke-linecap:round;stroke-linejoin:round;stroke-miterlimit:10;}
	.st26{fill:#FFFFFF;stroke:#39314C;stroke-width:2;stroke-miterlimit:10;}
	.st27{fill:#FFFFFF;stroke:#39314C;stroke-width:2;stroke-linecap:round;stroke-miterlimit:10;}
	.st28{fill:#48E584;stroke:#39314C;stroke-width:2;stroke-miterlimit:10;}
	.st29{fill:none;stroke:#39314C;stroke-width:3;stroke-miterlimit:10;}
	.st30{fill:none;stroke:#39314C;stroke-width:3;stroke-linejoin:round;stroke-miterlimit:10;}
</style>
<line class="st2" x1="18.4" y1="22.9" x2="18.4" y2="49.3"/>
<line class="st2" x1="33.9" y1="13.7" x2="47.2" y2="13.7"/>
<line class="st2" x1="62.5" y1="19.2" x2="62.5" y2="57.9"/>
<line class="st2" x1="34" y1="61.5" x2="47.3" y2="61.5"/>
<path class="st2" d="M27,22.9v13.9c0,1.5,1.2,2.7,2.7,2.7h19.9c1.4,0,2.5,1.1,2.5,2.5v15.8"/>
<g>
	<path class="st0" d="M32.6,3.6v18.4H4.2V3.6H32.6 M33.2,1.6H3.5c-0.7,0-1.3,0.6-1.3,1.3v19.7c0,0.7,0.6,1.3,1.3,1.3h29.7
		c0.7,0,1.3-0.6,1.3-1.3V2.9C34.6,2.2,34,1.6,33.2,1.6L33.2,1.6z"/>
</g>
<g>
	<path class="st0" d="M33.4,6.7h-30c-0.7,0-1.2-0.5-1.2-1.2V2.7c0-0.7,0.5-1.2,1.2-1.2h30c0.7,0,1.2,0.5,1.2,1.2v2.7
		C34.6,6.1,34.1,6.7,33.4,6.7z"/>
</g>
<g>
	<defs>
		<path id="SVGID_1_" d="M417.1-187c-0.9,0-1.5,0.7-1.5,1.5v20.5c0,0.9,0.7,1.5,1.5,1.5c0.9,0,1.5-0.7,1.5-1.5v-20.5
			C418.6-186.4,417.9-187,417.1-187z"/>
	</defs>
	<clipPath id="SVGID_2_">
		<use xlink:href="#SVGID_1_"  style="overflow:visible;"/>
	</clipPath>
	<g class="st8">
		<defs>
			<rect id="SVGID_3_" x="-304.7" y="-926.6" width="1366" height="1696"/>
		</defs>
		<clipPath id="SVGID_4_">
			<use xlink:href="#SVGID_3_"  style="overflow:visible;"/>
		</clipPath>
	</g>
</g>
<g>
	<defs>
		<path id="SVGID_5_" d="M417.1-160.8c-0.9,0-1.5,0.7-1.5,1.5v8.2c0,0.9,0.7,1.5,1.5,1.5c0.9,0,1.5-0.7,1.5-1.5v-8.2
			C418.6-160.1,417.9-160.8,417.1-160.8z"/>
	</defs>
	<clipPath id="SVGID_6_">
		<use xlink:href="#SVGID_5_"  style="overflow:visible;"/>
	</clipPath>
	<g class="st10">
		<defs>
			<rect id="SVGID_7_" x="-304.7" y="-926.6" width="1366" height="1696"/>
		</defs>
		<clipPath id="SVGID_8_">
			<use xlink:href="#SVGID_7_"  style="overflow:visible;"/>
		</clipPath>
	</g>
</g>
<g>
	<path class="st0" d="M77,57.3v18.4H48.5V57.3H77 M77.6,55.3H47.9c-0.7,0-1.3,0.6-1.3,1.3v19.7c0,0.7,0.6,1.3,1.3,1.3h29.7
		c0.7,0,1.3-0.6,1.3-1.3V56.7C79,55.9,78.4,55.3,77.6,55.3L77.6,55.3z"/>
</g>
<g>
	<path class="st0" d="M77.8,60.4h-30c-0.7,0-1.2-0.5-1.2-1.2v-2.7c0-0.7,0.5-1.2,1.2-1.2h30c0.7,0,1.2,0.5,1.2,1.2v2.7
		C79,59.9,78.4,60.4,77.8,60.4z"/>
</g>
<g>
	<path class="st0" d="M76,3.6v14.1H47.5V3.6H76 M76.6,1.6H46.9c-0.7,0-1.3,0.6-1.3,1.3v15.5c0,0.7,0.6,1.3,1.3,1.3h29.7
		c0.7,0,1.3-0.6,1.3-1.3V2.9C78,2.2,77.4,1.6,76.6,1.6L76.6,1.6z"/>
</g>
<g>
	<path class="st0" d="M76.8,6.7h-30c-0.7,0-1.2-0.5-1.2-1.2V2.7c0-0.7,0.5-1.2,1.2-1.2h30c0.7,0,1.2,0.5,1.2,1.2v2.7
		C78,6.1,77.4,6.7,76.8,6.7z"/>
</g>
<g>
	<path class="st0" d="M32.6,52.3V76H4.2V52.3H32.6 M33.2,50.3H3.5c-0.7,0-1.3,0.6-1.3,1.3v24.9c0,0.7,0.6,1.3,1.3,1.3h29.7
		c0.7,0,1.3-0.6,1.3-1.3V51.7C34.6,50.9,34,50.3,33.2,50.3L33.2,50.3z"/>
</g>
<g>
	<path class="st0" d="M33.4,54.4h-30c-0.7,0-1.2-0.5-1.2-1.2v-2.7c0-0.7,0.5-1.2,1.2-1.2h30c0.7,0,1.2,0.5,1.2,1.2v2.7
		C34.6,53.9,34.1,54.4,33.4,54.4z"/>
</g>
</svg>
