<?xml version="1.0" encoding="utf-8"?>
<!-- Generator: Adobe Illustrator 21.0.1, SVG Export Plug-In . SVG Version: 6.00 Build 0)  -->
<svg version="1.1" id="Layer_1" xmlns="http://www.w3.org/2000/svg" xmlns:xlink="http://www.w3.org/1999/xlink" x="0px" y="0px"
	 viewBox="0 0 80 80" style="enable-background:new 0 0 80 80;" xml:space="preserve">
<style type="text/css">
	.st0{fill:none;stroke:#48E584;stroke-width:2;stroke-linejoin:round;stroke-miterlimit:10;}
	.st1{fill:#39314C;}
	.st2{fill:none;stroke:#39314C;stroke-width:2;stroke-linejoin:round;stroke-miterlimit:10;}
	.st3{fill:#48E584;}
	.st4{fill:none;stroke:#39314C;stroke-width:2;stroke-miterlimit:10;}
	.st5{fill:none;stroke:#39314C;stroke-width:2;stroke-linecap:round;stroke-miterlimit:10;}
	.st6{fill:none;stroke:#48E584;stroke-width:2;stroke-linecap:round;stroke-miterlimit:10;}
	.st7{clip-path:url(#SVGID_2_);}
	.st8{clip-path:url(#SVGID_4_);fill:#39314C;}
	.st9{clip-path:url(#SVGID_6_);}
	.st10{clip-path:url(#SVGID_8_);fill:#39314C;}
	.st11{fill:none;stroke:#39314C;stroke-width:1.9425;stroke-miterlimit:10;}
	.st12{fill:none;stroke:#39314C;stroke-width:3;stroke-miterlimit:10;}
	.st13{fill:none;stroke:#48E584;stroke-width:3;stroke-linecap:round;stroke-miterlimit:10;}
	.st14{fill:none;stroke:#39314C;stroke-width:3;stroke-linecap:round;stroke-miterlimit:10;}
	.st15{fill:none;stroke:#39314C;stroke-width:3.4041;stroke-miterlimit:10;}
	.st16{fill:none;stroke:#39314C;stroke-width:3.4041;stroke-linecap:round;stroke-miterlimit:10;}
	.st17{fill:#FFFFFF;}
	.st18{fill-rule:evenodd;clip-rule:evenodd;fill:#39314C;}
	.st19{fill-rule:evenodd;clip-rule:evenodd;fill:none;stroke:#39314C;stroke-width:2;stroke-miterlimit:10;}
	.st20{fill-rule:evenodd;clip-rule:evenodd;fill:#39314C;stroke:#39314C;stroke-width:1.6222;stroke-miterlimit:10;}
	.st21{clip-path:url(#SVGID_10_);}
	.st22{clip-path:url(#SVGID_12_);}
	.st23{fill:#FFFFFF;stroke:#39314C;stroke-width:2;stroke-linejoin:round;stroke-miterlimit:10;}
	.st24{clip-path:url(#SVGID_14_);}
	.st25{clip-path:url(#SVGID_16_);fill:#48E584;}
	.st26{fill:#39314C;stroke:#39314C;stroke-width:2;stroke-miterlimit:10;}
	.st27{fill:#48E584;stroke:#48E584;stroke-linecap:round;stroke-miterlimit:10;}
	.st28{fill:#39314C;stroke:#39314C;stroke-miterlimit:10;}
	.st29{fill:#48E584;stroke:#48E584;stroke-width:2;stroke-linecap:round;stroke-miterlimit:10;}
	.st30{fill:#FFFFFF;stroke:#48E584;stroke-width:2;stroke-linecap:round;stroke-linejoin:round;stroke-miterlimit:10;}
	.st31{fill:#FFFFFF;stroke:#39314C;stroke-width:2;stroke-miterlimit:10;}
	.st32{fill:#FFFFFF;stroke:#39314C;stroke-width:2;stroke-linecap:round;stroke-miterlimit:10;}
	.st33{fill:#48E584;stroke:#39314C;stroke-width:2;stroke-miterlimit:10;}
	.st34{fill:#998DB2;}
	.st35{opacity:0.4;}
	.st36{fill:#201C2D;}
	.st37{fill:#39314C;stroke:#39314C;stroke-width:0.5406;stroke-miterlimit:10;}
	.st38{fill:#48E584;stroke:#48E584;stroke-width:0.5406;stroke-miterlimit:10;}
</style>
<g>
	<defs>
		<path id="SVGID_1_" d="M-191.4-65.3c-0.9,0-1.5,0.7-1.5,1.5v20.5c0,0.9,0.7,1.5,1.5,1.5s1.5-0.7,1.5-1.5v-20.5
			C-189.8-64.6-190.5-65.3-191.4-65.3z"/>
	</defs>
	<clipPath id="SVGID_2_">
		<use xlink:href="#SVGID_1_"  style="overflow:visible;"/>
	</clipPath>
	<g class="st7">
		<defs>
			<rect id="SVGID_3_" x="-913.2" y="-804.8" width="1366" height="1696"/>
		</defs>
		<clipPath id="SVGID_4_">
			<use xlink:href="#SVGID_3_"  style="overflow:visible;"/>
		</clipPath>
	</g>
</g>
<g>
	<defs>
		<path id="SVGID_5_" d="M-191.4-39c-0.9,0-1.5,0.7-1.5,1.5v8.2c0,0.9,0.7,1.5,1.5,1.5s1.5-0.7,1.5-1.5v-8.2
			C-189.8-38.3-190.5-39-191.4-39z"/>
	</defs>
	<clipPath id="SVGID_6_">
		<use xlink:href="#SVGID_5_"  style="overflow:visible;"/>
	</clipPath>
	<g class="st9">
		<defs>
			<rect id="SVGID_7_" x="-913.2" y="-804.8" width="1366" height="1696"/>
		</defs>
		<clipPath id="SVGID_8_">
			<use xlink:href="#SVGID_7_"  style="overflow:visible;"/>
		</clipPath>
	</g>
</g>
<g>
	<defs>
		<path id="SVGID_9_" d="M159,32.8c-1.6,0-3-1.3-3-3s1.3-3,3-3c1.6,0,3,1.3,3,3S160.7,32.8,159,32.8z M159.5,42.5h10.2
			c0.7,0,1.3-0.6,1.3-1.3c0-0.7-0.6-1.3-1.3-1.3h-10.2c-4.9,0-8.9-4-8.9-8.9v-0.4c0-4.9,4-8.9,8.9-8.9s8.9,4,8.9,8.9v0.9
			c0,1.1-0.9,1.9-1.9,1.9s-1.9-0.9-1.9-1.9v-1.8c0-3.1-2.5-5.5-5.5-5.5c-3.1,0-5.5,2.5-5.5,5.5c0,3.1,2.5,5.5,5.5,5.5
			c1.4,0,2.7-0.5,3.6-1.4c0.8,1.3,2.2,2.1,3.8,2.1c2.5,0,4.5-2,4.5-4.5v-0.9c0-6.3-5.2-11.5-11.5-11.5c-6.3,0-11.5,5.2-11.5,11.5V31
			C148,37.4,153.2,42.5,159.5,42.5z"/>
	</defs>
	<clipPath id="SVGID_10_">
		<use xlink:href="#SVGID_9_"  style="overflow:visible;"/>
	</clipPath>
	<g class="st21">
		<defs>
			<rect id="SVGID_11_" x="-374.3" y="-742" width="1058.3" height="1313.9"/>
		</defs>
		<clipPath id="SVGID_12_">
			<use xlink:href="#SVGID_11_"  style="overflow:visible;"/>
		</clipPath>
	</g>
</g>
<g>
	<g>
		<defs>
			<path id="SVGID_13_" d="M158.9-67.5c-1.6,0-3-1.3-3-3s1.3-3,3-3c1.6,0,3,1.3,3,3S160.5-67.5,158.9-67.5z M159.3-57.7h10.2
				c0.7,0,1.3-0.6,1.3-1.3c0-0.7-0.6-1.3-1.3-1.3h-10.2c-4.9,0-8.9-4-8.9-8.9v-0.4c0-4.9,4-8.9,8.9-8.9s8.9,4,8.9,8.9v0.9
				c0,1.1-0.9,1.9-1.9,1.9s-1.9-0.9-1.9-1.9v-1.8c0-3.1-2.5-5.5-5.5-5.5c-3.1,0-5.5,2.5-5.5,5.5c0,3.1,2.5,5.5,5.5,5.5
				c1.4,0,2.7-0.5,3.6-1.4c0.8,1.3,2.2,2.1,3.8,2.1c2.5,0,4.5-2,4.5-4.5v-0.9c0-6.3-5.2-11.5-11.5-11.5s-11.5,5.2-11.5,11.5v0.4
				C147.8-62.9,153-57.7,159.3-57.7z"/>
		</defs>
		<clipPath id="SVGID_14_">
			<use xlink:href="#SVGID_13_"  style="overflow:visible;"/>
		</clipPath>
		<g class="st24">
			<defs>
				<rect id="SVGID_15_" x="-374.4" y="-842.2" width="1058.3" height="1313.9"/>
			</defs>
			<clipPath id="SVGID_16_">
				<use xlink:href="#SVGID_15_"  style="overflow:visible;"/>
			</clipPath>
		</g>
	</g>
</g>
<g transform="matrix(1.13196,0.399258,-0.399258,1.13196,7.08034,-24.6139)">
	<path class="st37" d="M46.3,13.3c0.1,0,0.1,0,0.2,0c0,0,0,0,0.1,0c0.2,0.1,0.2,0.1,0.3,0.2c0.4,0.3,0.8,0.5,1.2,0.8
		c0.8,0.6,1.5,1.2,2.2,1.9c0.2,0.2,0.3,0.4,0.5,0.5c0,0,0.1,0.1,0.1,0.1c0,0,0.1,0.1,0.2,0.2c0.1,0.1,0.1,0.2,0.1,0.3
		c0,0,0,0.1,0,0.1c0,0.1,0,0.1-0.1,0.1L49,20.2c0.1,0.1,0.2,0.2,0.3,0.4c0.1,0.1,0.2,0.2,0.2,0.3c0.3,0.4,0.5,0.8,0.7,1.2
		c0.2,0.4,0.4,0.8,0.6,1.2l0,0l3.2-0.6l0.1,0c0.1,0,0.1,0,0.2,0c0.1,0,0.2,0.1,0.2,0.2c0,0,0,0,0,0.1c0.1,0.2,0.1,0.2,0.1,0.3
		c0.2,0.5,0.3,0.9,0.4,1.4c0.2,1,0.4,1.9,0.5,2.9c0,0.2,0,0.5,0,0.7c0,0.1,0,0.1,0,0.2c0,0,0,0.2,0,0.3c0,0.1-0.1,0.2-0.2,0.3
		c0,0,0,0-0.1,0c-0.1,0-0.1,0-0.1,0.1l-3.2,0.6c0,0.2,0,0.3,0,0.5c0,0.1,0,0.3,0,0.4c-0.1,0.5-0.1,0.9-0.2,1.4
		c-0.1,0.4-0.2,0.9-0.3,1.3l0,0l2.8,1.6l0.1,0c0,0,0.1,0.1,0.1,0.1c0.1,0.1,0.1,0.2,0.1,0.3c0,0,0,0.1,0,0.1
		c-0.1,0.2-0.1,0.2-0.1,0.3c-0.2,0.5-0.4,0.9-0.6,1.3c-0.4,0.9-0.9,1.7-1.5,2.5c-0.1,0.2-0.3,0.4-0.4,0.6c0,0-0.1,0.1-0.1,0.1
		c0,0-0.1,0.2-0.2,0.2c-0.1,0.1-0.2,0.1-0.3,0.1c0,0-0.1,0-0.1,0c-0.1,0-0.1,0-0.1-0.1L48,39.3c-0.1,0.1-0.2,0.2-0.3,0.3
		c-0.1,0.1-0.2,0.2-0.3,0.3c-0.3,0.3-0.7,0.6-1,0.9c-0.4,0.3-0.7,0.6-1.1,0.8l0,0l1.1,3l0,0.1c0,0,0,0.1,0,0.1c0,0.1,0,0.2-0.1,0.3
		c0,0.1-0.1,0.1-0.1,0.1c-0.2,0.1-0.2,0.1-0.3,0.2c-0.4,0.2-0.9,0.4-1.3,0.6c-0.9,0.4-1.8,0.7-2.8,1c-0.2,0.1-0.5,0.1-0.7,0.2
		c-0.1,0-0.1,0-0.2,0c0,0-0.2,0-0.3,0c-0.1,0-0.2,0-0.3-0.1c0,0,0,0-0.1-0.1c0-0.1,0-0.1-0.1-0.1l-1.1-3c-0.2,0-0.3,0-0.5,0
		c-0.1,0-0.3,0-0.4,0c-0.5,0-0.9,0-1.4,0c-0.5,0-0.9,0-1.4-0.1l0,0l-1.1,3l0,0.1c0,0.1,0,0.1-0.1,0.1c-0.1,0.1-0.2,0.1-0.3,0.1
		c0,0-0.1,0-0.1,0c-0.2,0-0.2,0-0.4-0.1c-0.5-0.1-1-0.2-1.4-0.4c-0.9-0.3-1.9-0.6-2.7-1.1c-0.2-0.1-0.4-0.2-0.7-0.3
		c-0.1,0-0.1-0.1-0.2-0.1c0,0-0.2-0.1-0.2-0.1C28,45.1,28,45,28,44.9c0,0,0-0.1,0-0.1c0-0.1,0-0.1,0-0.2l1.1-3
		c-0.1-0.1-0.3-0.2-0.4-0.3c-0.1-0.1-0.2-0.2-0.3-0.2c-0.4-0.3-0.7-0.6-1.1-0.9c-0.3-0.3-0.7-0.6-1-1l0,0l-2.8,1.6l-0.1,0
		c-0.1,0-0.1,0-0.2,0c-0.1,0-0.2,0-0.3-0.1c0,0,0,0-0.1-0.1c-0.1-0.1-0.1-0.1-0.2-0.3c-0.3-0.4-0.6-0.8-0.9-1.2
		c-0.5-0.8-1-1.7-1.4-2.6c-0.1-0.2-0.2-0.5-0.3-0.7c0-0.1,0-0.1-0.1-0.2c0,0-0.1-0.2-0.1-0.2c0-0.1,0-0.2,0-0.3c0,0,0,0,0-0.1
		c0-0.1,0.1-0.1,0.1-0.1l2.8-1.6c0-0.1-0.1-0.3-0.1-0.4c0-0.1-0.1-0.3-0.1-0.4c-0.1-0.4-0.2-0.9-0.3-1.3c-0.1-0.5-0.1-0.9-0.1-1.4
		l0,0l-3.2-0.6l-0.1,0c0,0,0,0-0.1,0c-0.1-0.1-0.2-0.1-0.2-0.2c0-0.1,0-0.1,0-0.2c0-0.2,0-0.2,0-0.4c0-0.5,0.1-1,0.1-1.5
		c0.1-1,0.3-1.9,0.6-2.9c0.1-0.2,0.1-0.5,0.2-0.7c0-0.1,0-0.1,0.1-0.2c0,0,0.1-0.2,0.1-0.2c0.1-0.1,0.1-0.2,0.2-0.2c0,0,0.1,0,0.1,0
		c0.1,0,0.1,0,0.2,0l3.2,0.6c0.1-0.1,0.1-0.3,0.2-0.4c0.1-0.1,0.1-0.2,0.2-0.4c0.2-0.4,0.4-0.8,0.7-1.2c0.2-0.4,0.5-0.8,0.8-1.1l0,0
		l-2.1-2.5l0-0.1c0-0.1,0-0.1-0.1-0.1c0-0.1,0-0.2,0.1-0.3c0,0,0,0,0-0.1c0.1-0.1,0.1-0.1,0.2-0.3c0.3-0.4,0.7-0.7,1-1.1
		c0.7-0.7,1.5-1.3,2.3-1.8c0.2-0.1,0.4-0.3,0.6-0.4c0.1,0,0.1-0.1,0.2-0.1c0,0,0.2-0.1,0.2-0.1c0.1,0,0.2,0,0.3,0c0,0,0,0,0.1,0
		c0.1,0,0.1,0.1,0.1,0.1l2.1,2.5c0.1-0.1,0.3-0.1,0.4-0.2c0.1-0.1,0.2-0.1,0.4-0.2c0.4-0.2,0.8-0.3,1.3-0.5c0.4-0.1,0.9-0.3,1.3-0.4
		l0,0v-3.2l0-0.1c0-0.1,0-0.1,0.1-0.1c0.1-0.1,0.1-0.2,0.2-0.2c0,0,0.1,0,0.1,0c0.2,0,0.2,0,0.4-0.1c0.5-0.1,1-0.1,1.5-0.1
		c1-0.1,2,0,2.9,0.1c0.2,0,0.5,0.1,0.7,0.1c0.1,0,0.1,0,0.2,0c0,0,0.2,0,0.3,0c0.1,0,0.2,0.1,0.2,0.2c0,0,0,0,0,0.1
		c0,0.1,0,0.1,0,0.2v3.2c0.1,0,0.3,0.1,0.4,0.1c0.1,0,0.3,0.1,0.4,0.1c0.4,0.1,0.9,0.3,1.3,0.4c0.4,0.2,0.8,0.4,1.3,0.6l0,0l2.1-2.5
		l0.1-0.1c0.1,0,0.1-0.1,0.1-0.1C46.2,13.3,46.2,13.3,46.3,13.3C46.3,13.3,46.3,13.3,46.3,13.3z M34.7,15.1c0,0.1,0,0.1,0,0.2
		c0,0.1-0.1,0.2-0.2,0.2c-0.1,0-0.1,0-0.1,0.1c-0.1,0-0.3,0.1-0.4,0.1c-0.6,0.1-1.2,0.3-1.8,0.6c-0.6,0.2-1.1,0.5-1.6,0.8l-0.1,0
		c0,0,0,0-0.1,0c-0.1,0-0.2,0-0.3-0.1c-0.1,0-0.1-0.1-0.1-0.1l-1.8-2.2c-0.1-0.2-0.4-0.2-0.6-0.1c-0.6,0.4-1.1,0.8-1.6,1.2
		c-0.5,0.4-1,0.9-1.5,1.4c-0.1,0.2-0.2,0.4,0,0.6l1.8,2.2c0,0.1,0.1,0.1,0.1,0.1c0,0.1,0,0.2,0,0.3c0,0.1,0,0.1-0.1,0.1
		c-0.1,0.1-0.2,0.2-0.2,0.3c-0.4,0.5-0.7,1.1-1.1,1.6c-0.3,0.5-0.5,1.1-0.8,1.6l0,0.1c0,0.1,0,0.1-0.1,0.1c-0.1,0.1-0.2,0.1-0.3,0.1
		c0,0-0.1,0-0.1,0l-2.8-0.5c-0.2,0-0.4,0.1-0.5,0.3c-0.2,0.7-0.4,1.3-0.5,2c-0.1,0.7-0.2,1.4-0.2,2c0,0.2,0.1,0.4,0.3,0.4l2.8,0.5
		c0.1,0,0.1,0,0.1,0.1c0.1,0.1,0.2,0.1,0.2,0.2c0,0.1,0,0.1,0,0.2c0,0.1,0,0.3,0,0.4c0,0.6,0.1,1.3,0.2,1.9c0.1,0.6,0.3,1.2,0.5,1.7
		l0,0.1c0,0,0,0.1,0,0.1c0,0.1,0,0.2-0.1,0.3c0,0.1-0.1,0.1-0.1,0.1l-2.5,1.4c-0.2,0.1-0.3,0.3-0.2,0.5c0.3,0.6,0.6,1.2,0.9,1.8
		c0.3,0.6,0.7,1.2,1.1,1.7c0.1,0.2,0.4,0.2,0.5,0.1l2.5-1.4c0.1,0,0.1,0,0.1-0.1c0.1,0,0.2,0,0.3,0c0.1,0,0.1,0,0.1,0.1
		c0.1,0.1,0.2,0.2,0.3,0.3c0.4,0.5,0.9,0.9,1.4,1.3c0.5,0.4,1,0.7,1.5,1l0.1,0c0,0,0,0,0.1,0.1c0.1,0.1,0.1,0.2,0.1,0.3
		c0,0.1,0,0.1,0,0.2l-1,2.7c-0.1,0.2,0,0.4,0.2,0.5c0.6,0.3,1.2,0.6,1.9,0.8c0.6,0.2,1.3,0.4,2,0.6c0.2,0,0.4-0.1,0.5-0.3l1-2.7
		c0-0.1,0-0.1,0.1-0.1c0.1-0.1,0.2-0.1,0.3-0.2c0.1,0,0.1,0,0.2,0c0.1,0,0.3,0,0.4,0.1c0.6,0.1,1.3,0.1,1.9,0.1
		c0.6,0,1.2-0.1,1.8-0.2l0.1,0c0,0,0.1,0,0.1,0c0.1,0,0.2,0.1,0.3,0.2c0,0.1,0,0.1,0.1,0.1l1,2.7c0.1,0.2,0.3,0.3,0.5,0.3
		c0.7-0.2,1.3-0.4,2-0.6c0.6-0.2,1.3-0.5,1.9-0.8c0.2-0.1,0.3-0.3,0.2-0.5l-1-2.7c0-0.1,0-0.1,0-0.2c0-0.1,0-0.2,0.1-0.3
		c0-0.1,0.1-0.1,0.1-0.1c0.1-0.1,0.2-0.1,0.3-0.2c0.5-0.4,1.1-0.7,1.5-1.2c0.5-0.4,0.9-0.8,1.3-1.3l0.1-0.1c0.1,0,0.1-0.1,0.1-0.1
		c0.1,0,0.2,0,0.3,0c0,0,0,0,0.1,0l2.5,1.4c0.2,0.1,0.4,0.1,0.5-0.1c0.4-0.5,0.8-1.1,1.1-1.7c0.3-0.6,0.6-1.2,0.9-1.8
		c0.1-0.2,0-0.4-0.2-0.5l-2.5-1.4c-0.1,0-0.1,0-0.1-0.1c-0.1-0.1-0.1-0.2-0.1-0.3c0-0.1,0-0.1,0-0.2c0-0.1,0.1-0.2,0.1-0.4
		c0.2-0.6,0.3-1.2,0.4-1.9c0.1-0.6,0.1-1.2,0.2-1.8l0-0.1c0-0.1,0-0.1,0.1-0.1c0.1-0.1,0.1-0.2,0.2-0.2c0,0,0,0,0.1,0l2.8-0.5
		c0.2,0,0.4-0.2,0.3-0.4c0-0.7-0.1-1.4-0.2-2c-0.1-0.7-0.3-1.3-0.5-2c-0.1-0.2-0.3-0.3-0.5-0.3l-2.8,0.5c-0.1,0-0.1,0-0.2,0
		c-0.1,0-0.2-0.1-0.3-0.1c0-0.1,0-0.1-0.1-0.1c0-0.1-0.1-0.2-0.1-0.4c-0.3-0.6-0.5-1.2-0.9-1.7c-0.3-0.5-0.7-1-1-1.5l0-0.1
		c0,0,0,0,0-0.1c0-0.1,0-0.2,0-0.3c0-0.1,0-0.1,0.1-0.1l1.8-2.2c0.1-0.2,0.1-0.4,0-0.6c-0.5-0.5-1-1-1.5-1.4
		c-0.5-0.4-1.1-0.8-1.6-1.2c-0.2-0.1-0.4-0.1-0.6,0.1l-1.8,2.2c0,0-0.1,0.1-0.1,0.1C44.1,17,44,17,43.9,17c-0.1,0-0.1,0-0.1,0
		c-0.1-0.1-0.2-0.1-0.3-0.2c-0.6-0.3-1.2-0.5-1.8-0.8c-0.6-0.2-1.2-0.4-1.7-0.5l-0.1,0c-0.1,0-0.1,0-0.1-0.1
		c-0.1-0.1-0.1-0.2-0.1-0.3c0,0,0-0.1,0-0.1v-2.8c0-0.2-0.2-0.4-0.4-0.4c-0.7-0.1-1.4-0.1-2-0.1c-0.7,0-1.4,0-2,0.1
		c-0.2,0-0.4,0.2-0.4,0.4V15.1z M34.5,21.3c0.4-0.1,0.7-0.2,1.1-0.3c0.8-0.2,1.6-0.2,2.4-0.1c1.1,0.1,2.1,0.4,3.1,1
		c1.6,0.9,2.9,2.3,3.7,4c0.3,0.7,0.5,1.5,0.6,2.3c0.1,0.8,0.1,1.7-0.1,2.5c-0.2,0.8-0.4,1.6-0.8,2.4c-0.5,0.9-1.1,1.7-1.9,2.3
		c-0.8,0.7-1.7,1.2-2.7,1.5c-1.1,0.4-2.2,0.5-3.4,0.4c-1.1-0.1-2.1-0.4-3-0.8c-0.9-0.5-1.7-1.1-2.4-1.8c-0.6-0.7-1.2-1.5-1.5-2.4
		c-0.3-0.8-0.5-1.6-0.6-2.4c-0.1-0.9,0-1.8,0.2-2.7c0.2-0.8,0.5-1.6,1-2.3c0.5-0.8,1.2-1.6,2-2.2c0.5-0.4,1-0.7,1.5-0.9
		c0.2-0.1,0.5-0.2,0.7-0.3C34.4,21.4,34.4,21.4,34.5,21.3z M34.6,22.3c-0.7,0.3-1.4,0.6-2,1.1c-1.3,1-2.2,2.4-2.6,4
		c-0.2,0.8-0.2,1.5-0.2,2.3c0.1,0.7,0.2,1.4,0.5,2.1c0.3,0.8,0.8,1.5,1.3,2.2c0.6,0.7,1.3,1.3,2.2,1.7c0.9,0.4,1.8,0.7,2.8,0.8
		c1,0.1,2-0.1,3-0.4c0.9-0.3,1.7-0.8,2.4-1.4c0.7-0.6,1.2-1.3,1.7-2.1c0.4-0.7,0.6-1.4,0.8-2.1c0.1-0.7,0.2-1.5,0.1-2.2
		c-0.1-0.7-0.3-1.4-0.5-2c-0.6-1.5-1.8-2.8-3.3-3.6c-0.8-0.5-1.8-0.8-2.7-0.8c-0.7-0.1-1.4,0-2.1,0.1c-0.3,0.1-0.6,0.1-1,0.3
		C34.7,22.2,34.7,22.2,34.6,22.3z"/>
</g>
<g transform="matrix(0.868119,0.306198,-0.306198,0.868119,27.4609,20.508)">
	<path class="st37" d="M49.4,14.5c0.1,0,0.1,0,0.2,0c0.1,0,0.1,0,0.2,0c0.2,0.1,0.3,0.2,0.5,0.2c0.8,0.4,1.5,0.8,2.2,1.3
		c0.8,0.5,1.5,1.1,2.2,1.7l0.1,0.1c0,0.1,0.1,0.1,0.1,0.1c0.1,0.1,0.1,0.3,0,0.4c0,0.1,0,0.1-0.1,0.2L53,21.2
		c0.1,0.1,0.2,0.2,0.3,0.4c0.1,0.1,0.2,0.3,0.4,0.4c0.5,0.6,0.9,1.2,1.3,1.8L55,24l0,0.1l3-0.9c0.1,0,0.1,0,0.2,0
		c0.2,0,0.3,0.1,0.4,0.2c0,0.1,0.1,0.1,0.1,0.1c0.1,0.2,0.2,0.3,0.2,0.5c0.3,0.8,0.6,1.6,0.9,2.4c0.2,0.9,0.4,1.8,0.5,2.7l0,0.1
		c0,0.1,0,0.1,0,0.2c0,0.1-0.1,0.2-0.2,0.3c-0.1,0-0.1,0-0.2,0.1l-3,0.9c0,0.2,0,0.3,0,0.5c0,0.2,0,0.4,0,0.6c0,0.7-0.1,1.5-0.2,2.2
		l0,0.1l0,0.1l2.9,1.3c0.1,0,0.1,0,0.1,0.1c0.1,0.1,0.2,0.3,0.2,0.4c0,0.1,0,0.1,0,0.2c0,0.2-0.1,0.4-0.1,0.5
		c-0.2,0.8-0.5,1.6-0.9,2.4c-0.4,0.8-0.8,1.7-1.3,2.4l0,0.1c-0.1,0.1-0.1,0.1-0.1,0.1c-0.1,0.1-0.3,0.1-0.4,0.1c-0.1,0-0.1,0-0.2,0
		l-2.9-1.3c-0.1,0.1-0.2,0.3-0.3,0.4c-0.2,0.2-0.4,0.5-0.6,0.7c-0.4,0.5-0.9,0.9-1.3,1.3l-0.1,0.1l-0.1,0l1.4,2.8
		c0,0.1,0,0.1,0.1,0.2c0,0.2,0,0.3-0.1,0.5c0,0.1-0.1,0.1-0.1,0.1c-0.2,0.1-0.3,0.2-0.5,0.3c-0.7,0.5-1.5,0.9-2.3,1.3
		c-0.8,0.4-1.7,0.7-2.6,1l-0.1,0c-0.1,0-0.1,0-0.2,0c-0.1,0-0.3-0.1-0.4-0.2c0-0.1-0.1-0.1-0.1-0.1L45.3,46c-0.2,0-0.3,0.1-0.5,0.1
		c-0.2,0-0.4,0.1-0.5,0.1c-0.7,0.1-1.5,0.2-2.2,0.2l-0.1,0l-0.1,0l-0.7,3c0,0.1,0,0.1-0.1,0.2c-0.1,0.1-0.2,0.2-0.4,0.3
		c-0.1,0-0.1,0-0.2,0c-0.2,0-0.4,0-0.6-0.1c-0.9-0.1-1.7-0.3-2.6-0.5c-0.9-0.2-1.8-0.5-2.6-0.9l-0.1,0c-0.1,0-0.1-0.1-0.1-0.1
		c-0.1-0.1-0.2-0.2-0.2-0.4c0-0.1,0-0.1,0-0.2l0.7-3c-0.1-0.1-0.3-0.2-0.4-0.2c-0.1-0.1-0.3-0.1-0.4-0.2c-0.7-0.4-1.3-0.9-1.9-1.4
		l-0.1-0.1l-0.1,0l-2.5,1.8c-0.1,0-0.1,0.1-0.1,0.1c-0.2,0.1-0.3,0-0.5,0c-0.1,0-0.1-0.1-0.1-0.1c-0.1-0.1-0.3-0.3-0.4-0.4
		c-0.6-0.6-1.2-1.3-1.7-2c-0.5-0.8-1-1.6-1.4-2.4l0-0.1c0-0.1,0-0.1,0-0.2c0-0.1,0-0.3,0.1-0.4c0-0.1,0.1-0.1,0.1-0.1l2.5-1.8
		c-0.1-0.1-0.1-0.3-0.2-0.5c0-0.1-0.1-0.2-0.1-0.3c-0.3-0.8-0.5-1.6-0.6-2.4l0-0.1l0-0.1l-3.1-0.2c-0.1,0-0.1,0-0.2,0
		c-0.2-0.1-0.3-0.2-0.3-0.3c0-0.1,0-0.1,0-0.2c0-0.2,0-0.4,0-0.6c-0.1-0.9,0-1.7,0-2.6c0.1-0.9,0.2-1.8,0.4-2.7l0-0.1
		c0-0.1,0-0.1,0.1-0.1c0.1-0.1,0.2-0.2,0.3-0.2c0.1,0,0.1,0,0.2,0l3.1,0.2c0-0.2,0.1-0.3,0.2-0.5c0.1-0.2,0.1-0.3,0.2-0.5
		c0.3-0.7,0.6-1.4,1-2l0.1-0.1l0-0.1l-2.3-2.2c0-0.1-0.1-0.1-0.1-0.1c-0.1-0.1-0.1-0.3,0-0.5c0-0.1,0-0.1,0.1-0.1
		c0.1-0.2,0.2-0.3,0.3-0.5c0.5-0.7,1.1-1.4,1.7-2c0.7-0.7,1.4-1.3,2.1-1.8l0.1,0c0.1,0,0.1,0,0.2-0.1c0.1,0,0.3,0,0.4,0.1
		c0.1,0,0.1,0.1,0.1,0.1l2.3,2.2c0.1-0.1,0.3-0.2,0.4-0.3c0.2-0.1,0.3-0.2,0.5-0.3c0.7-0.4,1.3-0.7,2-0.9l0.1,0l0.1,0l-0.3-3.1
		c0-0.1,0-0.1,0-0.2c0-0.2,0.1-0.3,0.3-0.4c0.1,0,0.1,0,0.2-0.1c0.2,0,0.4-0.1,0.5-0.1c0.8-0.2,1.7-0.3,2.6-0.4
		c0.9-0.1,1.9-0.1,2.8-0.1l0.1,0c0.1,0,0.1,0,0.2,0.1c0.1,0.1,0.2,0.2,0.3,0.3c0,0.1,0,0.1,0,0.2l0.3,3.1c0.2,0,0.3,0,0.5,0.1
		c0.2,0,0.4,0.1,0.5,0.1c0.7,0.1,1.4,0.3,2.1,0.6l0.1,0l0.1,0l1.7-2.6c0-0.1,0.1-0.1,0.1-0.1C49.1,14.6,49.2,14.6,49.4,14.5
		C49.3,14.6,49.3,14.5,49.4,14.5z M38.2,17.6c0,0.1,0,0.1,0,0.2c0,0.1-0.1,0.3-0.2,0.4c-0.1,0-0.1,0-0.2,0.1
		c-0.2,0.1-0.3,0.1-0.5,0.2c-0.6,0.2-1.1,0.4-1.6,0.7c-0.5,0.3-1,0.6-1.5,0.9l-0.1,0c-0.1,0-0.1,0-0.2,0.1c-0.1,0-0.2,0-0.3-0.1
		c-0.1,0-0.1-0.1-0.1-0.1l-1.9-1.8c-0.2-0.2-0.5-0.2-0.7,0c-1,0.9-2,1.9-2.8,3l0,0l2.2,2.1l0.1,0.1c0,0.1,0.1,0.1,0.1,0.2
		c0,0.1,0,0.2,0,0.4c0,0.1,0,0.1-0.1,0.2c-0.1,0.1-0.2,0.3-0.3,0.4c-0.3,0.5-0.6,1-0.8,1.6c-0.2,0.6-0.4,1.1-0.6,1.7l0,0.1
		c0,0.1,0,0.1-0.1,0.1c-0.1,0.1-0.2,0.2-0.3,0.2c-0.1,0-0.1,0-0.2,0L25.5,28c-0.3,0-0.5,0.2-0.6,0.5c-0.2,1.3-0.3,2.7-0.2,4l0,0
		l3.1,0.2l0.1,0c0.1,0,0.1,0,0.2,0.1c0.1,0.1,0.2,0.2,0.2,0.3c0,0.1,0,0.1,0.1,0.2c0,0.2,0,0.3,0.1,0.5c0.1,0.6,0.2,1.2,0.4,1.7
		c0.2,0.6,0.4,1.1,0.6,1.7l0,0.1c0,0.1,0,0.1,0,0.2c0,0.1,0,0.2-0.1,0.3c0,0.1-0.1,0.1-0.1,0.1l-2.1,1.5c-0.2,0.2-0.3,0.5-0.2,0.7
		c0.7,1.2,1.5,2.2,2.4,3.2l0,0l2.5-1.8l0.1,0c0.1,0,0.1,0,0.2-0.1c0.1,0,0.2,0,0.3,0c0.1,0,0.1,0,0.1,0.1c0.1,0.1,0.3,0.2,0.4,0.3
		c0.5,0.4,0.9,0.7,1.4,1.1c0.5,0.3,1,0.6,1.6,0.9l0.1,0c0.1,0,0.1,0.1,0.1,0.1c0.1,0.1,0.1,0.2,0.1,0.3c0,0.1,0,0.1,0,0.2l-0.6,2.5
		c-0.1,0.3,0.1,0.6,0.3,0.7c1.3,0.5,2.6,0.8,3.9,0.9l0,0l0.7-3l0-0.1c0-0.1,0-0.1,0.1-0.2c0.1-0.1,0.2-0.2,0.3-0.2
		c0.1,0,0.1,0,0.2,0c0.2,0,0.3,0,0.5,0c0.6,0,1.2,0,1.8-0.1c0.6-0.1,1.2-0.2,1.8-0.3l0.1,0c0.1,0,0.1,0,0.2,0c0.1,0,0.2,0.1,0.3,0.2
		c0.1,0.1,0.1,0.1,0.1,0.1l1.1,2.3c0.1,0.3,0.4,0.4,0.7,0.3c1.3-0.5,2.5-1.1,3.6-1.8l0,0L50.2,43l0-0.1c0-0.1,0-0.1,0-0.2
		c0-0.1,0-0.2,0.1-0.3c0-0.1,0.1-0.1,0.1-0.1c0.1-0.1,0.3-0.2,0.4-0.3c0.5-0.4,0.9-0.8,1.3-1.2c0.4-0.4,0.8-0.9,1.1-1.4l0.1-0.1
		c0.1-0.1,0.1-0.1,0.1-0.1c0.1-0.1,0.2-0.1,0.3-0.1c0.1,0,0.1,0,0.2,0l2.4,1.1c0.3,0.1,0.6,0,0.7-0.2c0.7-1.2,1.2-2.4,1.6-3.7l0,0
		L55.8,35l-0.1,0c-0.1,0-0.1-0.1-0.1-0.1c-0.1-0.1-0.1-0.2-0.1-0.3c0-0.1,0-0.1,0-0.2c0-0.2,0.1-0.3,0.1-0.5
		c0.1-0.6,0.2-1.2,0.2-1.8c0-0.6,0-1.2,0-1.8l0-0.1c0-0.1,0-0.1,0-0.2c0-0.1,0.1-0.2,0.2-0.3c0.1,0,0.1,0,0.2-0.1l2.5-0.7
		c0.3-0.1,0.4-0.3,0.4-0.6c-0.2-1.3-0.6-2.6-1.2-3.9l0,0l-3,0.9l-0.1,0c-0.1,0-0.1,0-0.2,0c-0.1,0-0.2-0.1-0.3-0.2
		c-0.1-0.1-0.1-0.1-0.1-0.1c-0.1-0.2-0.2-0.3-0.2-0.5c-0.3-0.5-0.6-1-1-1.5c-0.4-0.5-0.8-0.9-1.2-1.4l-0.1-0.1
		c0-0.1-0.1-0.1-0.1-0.2c0-0.1,0-0.2,0-0.4c0-0.1,0-0.1,0.1-0.2l1.4-2.2c0.2-0.2,0.1-0.6-0.1-0.7c-1-0.9-2.2-1.6-3.4-2.2l0,0
		l-1.7,2.6l-0.1,0.1c-0.1,0.1-0.1,0.1-0.1,0.1c-0.1,0.1-0.2,0.1-0.3,0.1c-0.1,0-0.1,0-0.2,0c-0.2-0.1-0.3-0.1-0.5-0.2
		c-0.6-0.2-1.1-0.4-1.7-0.5c-0.6-0.1-1.2-0.2-1.8-0.3l-0.1,0c-0.1,0-0.1,0-0.2-0.1c-0.1-0.1-0.2-0.2-0.2-0.3c0-0.1,0-0.1,0-0.2
		l-0.3-2.6c0-0.3-0.3-0.5-0.5-0.5c-1.4,0-2.7,0.2-4,0.5l0,0C38,15.6,38.1,16.6,38.2,17.6z M38.5,23.8c0.3-0.2,0.7-0.3,1.1-0.4
		c0.8-0.2,1.6-0.4,2.4-0.4c1.1,0,2.2,0.2,3.2,0.6c1.7,0.7,3.1,1.9,4,3.5c0.4,0.7,0.7,1.5,0.9,2.3c0.2,0.8,0.3,1.7,0.2,2.5
		c-0.1,0.9-0.3,1.7-0.6,2.5c-0.4,0.9-0.9,1.8-1.6,2.6c-0.7,0.8-1.6,1.4-2.5,1.9c-1,0.5-2.2,0.8-3.3,0.9c-1.1,0-2.2-0.1-3.2-0.5
		c-1-0.3-1.9-0.9-2.7-1.6c-0.7-0.6-1.4-1.4-1.8-2.3c-0.4-0.7-0.7-1.5-0.9-2.3c-0.2-0.9-0.2-1.8-0.1-2.8c0.2-1.8,1-3.5,2.3-4.9
		c0.6-0.6,1.3-1.2,2.1-1.6C38.2,23.9,38.3,23.9,38.5,23.8z M38.8,24.9c-0.7,0.3-1.3,0.8-1.8,1.3c-1.1,1.1-1.9,2.6-2.1,4.1
		c-0.1,0.8-0.1,1.6,0,2.4c0.1,0.7,0.4,1.4,0.7,2c0.4,0.7,0.9,1.4,1.5,2c0.7,0.6,1.4,1.1,2.3,1.4c0.9,0.3,1.8,0.5,2.7,0.5
		c1,0,2-0.2,2.9-0.7c0.8-0.4,1.5-0.9,2.1-1.5c0.6-0.6,1.1-1.3,1.4-2.1c0.3-0.7,0.5-1.4,0.6-2.1c0.1-0.7,0-1.4-0.1-2.1
		c-0.1-0.7-0.3-1.3-0.7-1.9c-0.8-1.5-2-2.7-3.5-3.3c-0.9-0.4-1.8-0.6-2.7-0.6c-1,0-2.1,0.2-3,0.6C39,24.8,38.9,24.9,38.8,24.9z"/>
</g>
<g transform="matrix(0.532511,0.336456,-0.336456,0.532511,15.5181,25.051)">
	<path class="st38" d="M31.3,17.3l0.1,0c0.2-0.1,0.5-0.2,0.7-0.2c0.8-0.2,1.6-0.4,2.4-0.6c0.9-0.1,1.7-0.2,2.6-0.2l0.2,0
		c0.1,0,0.2,0,0.3,0.1c0.2,0.1,0.4,0.2,0.5,0.4c0,0.1,0,0.1,0.1,0.2l0.5,2.9c0.2,0,0.2,0,0.4,0c0.3,0,0.3,0,0.6,0.1
		c0.5,0.1,1,0.2,1.5,0.3c0.3,0.1,0.7-0.1,0.9-0.4l1.2-2c0.1-0.1,0.1-0.1,0.1-0.2c0.2-0.2,0.4-0.2,0.6-0.3c0.1,0,0.2,0,0.3,0.1
		c0.2,0.1,0.5,0.2,0.7,0.3c0.7,0.3,1.5,0.7,2.2,1.1c0.8,0.4,1.5,1,2.2,1.5l0.1,0.1c0.1,0.1,0.1,0.1,0.2,0.2c0.1,0.2,0.2,0.4,0.2,0.6
		c0,0.1-0.1,0.2-0.1,0.3l-1.5,2.5c0.2,0.1,0.2,0.1,0.3,0.3c0.2,0.2,0.2,0.2,0.4,0.4c0.3,0.4,0.7,0.8,1,1.2c0.2,0.3,0.6,0.4,0.9,0.3
		l2.2-0.8c0.1,0,0.2-0.1,0.3-0.1c0.2,0,0.4,0.1,0.6,0.3c0.1,0.1,0.1,0.1,0.1,0.2c0.1,0.2,0.2,0.4,0.4,0.7c0.4,0.7,0.7,1.5,1,2.3
		c0.3,0.8,0.5,1.7,0.7,2.5l0,0.2c0,0.1,0,0.1,0,0.2c0,0.2-0.1,0.4-0.3,0.6c-0.1,0.1-0.2,0.1-0.3,0.2l-2.7,1c0,0.2,0,0.2,0,0.4
		c0,0.3,0,0.3,0,0.6c0,0.5,0,1,0,1.5c0,0.4,0.2,0.7,0.5,0.8l2.2,0.8c0.1,0,0.2,0.1,0.3,0.2c0.2,0.1,0.3,0.4,0.3,0.6
		c0,0.1,0,0.1,0,0.2c0,0.2-0.1,0.5-0.2,0.7c-0.2,0.9-0.5,1.7-0.8,2.5c-0.3,0.8-0.6,1.5-1,2.2l-0.1,0.2c-0.1,0.1-0.1,0.2-0.2,0.3
		c-0.2,0.1-0.4,0.2-0.6,0.2c-0.1,0-0.1,0-0.2,0l-2.7-1c-0.1,0.2-0.1,0.2-0.2,0.3c-0.2,0.2-0.2,0.2-0.3,0.5c-0.3,0.4-0.6,0.8-1,1.1
		c-0.2,0.3-0.3,0.6-0.1,0.9l1.2,2c0,0.1,0.1,0.2,0.1,0.3c0,0.2,0,0.4-0.2,0.6c-0.1,0.1-0.1,0.1-0.2,0.2c-0.2,0.2-0.4,0.3-0.6,0.5
		c-0.7,0.5-1.4,1-2.2,1.4c-0.7,0.4-1.5,0.7-2.2,1l-0.2,0.1c-0.1,0-0.2,0.1-0.3,0.1c-0.2,0-0.4-0.1-0.6-0.3c-0.1-0.1-0.1-0.1-0.1-0.2
		l-1.5-2.5c-0.2,0.1-0.2,0.1-0.4,0.1c-0.3,0.1-0.3,0.1-0.6,0.1c-0.5,0.1-1,0.2-1.5,0.2c-0.4,0-0.6,0.3-0.7,0.6l-0.4,2.3
		c0,0.1,0,0.1-0.1,0.2c-0.1,0.2-0.3,0.4-0.5,0.4c-0.1,0-0.2,0.1-0.3,0.1c-0.2,0-0.5,0-0.7,0c-0.8,0-1.6-0.1-2.4-0.3
		c-0.9-0.2-1.7-0.4-2.6-0.7l-0.2-0.1c-0.1,0-0.1,0-0.2-0.1c-0.2-0.1-0.3-0.3-0.4-0.5c0-0.1,0-0.2,0-0.3l0.5-2.9
		c-0.2-0.1-0.2-0.1-0.4-0.2c-0.3-0.1-0.3-0.1-0.5-0.3c-0.4-0.2-0.9-0.5-1.3-0.8c-0.3-0.2-0.7-0.2-1,0l-1.8,1.5
		c-0.1,0.1-0.1,0.1-0.2,0.1c-0.2,0.1-0.4,0.1-0.6,0c-0.1,0-0.2-0.1-0.3-0.2c-0.2-0.2-0.4-0.3-0.6-0.5c-0.6-0.6-1.2-1.2-1.7-1.8
		c-0.6-0.7-1.1-1.4-1.5-2.1l-0.1-0.2c-0.1-0.1-0.1-0.2-0.1-0.3c0-0.2,0-0.4,0.1-0.6c0.1-0.1,0.1-0.1,0.1-0.2l2.2-1.9
		c-0.1-0.2-0.1-0.2-0.2-0.4c-0.1-0.3-0.1-0.3-0.2-0.5c-0.2-0.5-0.4-0.9-0.5-1.4c-0.1-0.3-0.4-0.6-0.8-0.6l-2.3,0c-0.1,0-0.1,0-0.2,0
		c-0.2-0.1-0.4-0.2-0.5-0.4c-0.1-0.1-0.1-0.2-0.1-0.3c0-0.2-0.1-0.5-0.1-0.7c-0.1-0.9-0.1-1.8-0.1-2.6c0-0.8,0.1-1.6,0.2-2.4l0-0.2
		c0-0.1,0.1-0.2,0.1-0.3c0.1-0.2,0.3-0.3,0.5-0.4c0.1,0,0.1,0,0.2,0l2.9,0c0.1-0.2,0.1-0.2,0.1-0.4c0.1-0.3,0.1-0.3,0.2-0.5
		c0.2-0.5,0.3-1,0.5-1.4c0.1-0.3,0.1-0.7-0.2-0.9l-1.8-1.5c-0.1-0.1-0.1-0.1-0.1-0.2c-0.1-0.2-0.2-0.4-0.1-0.6
		c0-0.1,0.1-0.2,0.1-0.3c0.1-0.2,0.3-0.4,0.4-0.6c0.5-0.7,0.9-1.3,1.5-2c0.6-0.7,1.2-1.3,1.9-1.9l0.1-0.1c0.1-0.1,0.1-0.1,0.2-0.1
		c0.2-0.1,0.4-0.1,0.6,0c0.1,0,0.2,0.1,0.3,0.2l2.2,1.9c0.2-0.1,0.2-0.1,0.3-0.2c0.2-0.2,0.2-0.2,0.5-0.3c0.4-0.3,0.9-0.5,1.3-0.7
		c0.3-0.2,0.5-0.5,0.4-0.8l-0.4-2.3c0-0.1,0-0.1,0-0.2c0-0.2,0.1-0.4,0.2-0.5C31.1,17.5,31.1,17.5,31.3,17.3
		C31.3,17.4,31.3,17.4,31.3,17.3z M37.5,48.7c0.1-0.1,0.2-0.1,0.3-0.1c0.2,0,0.4,0,0.6,0c0.6,0,1.2-0.1,1.7-0.2
		c0.6-0.1,1.1-0.3,1.7-0.4l0.1,0c0.1,0,0.1,0,0.2,0c0.2,0,0.4,0.1,0.6,0.3c0.1,0.1,0.1,0.1,0.1,0.2l1.1,1.8c0.2,0.4,0.7,0.5,1,0.3
		c0.9-0.5,1.8-1,2.7-1.6l0.1-0.1l-1.4-2.5l0-0.1c0-0.1,0-0.1-0.1-0.2c0-0.2,0-0.4,0.1-0.5c0-0.1,0.1-0.1,0.1-0.2
		c0.1-0.1,0.3-0.3,0.5-0.4c0.4-0.4,0.8-0.8,1.2-1.3c0.4-0.5,0.7-0.9,1-1.4l0.1-0.1c0.1-0.1,0.1-0.1,0.2-0.1c0.2-0.1,0.4-0.2,0.6-0.2
		c0.1,0,0.1,0,0.2,0l2,0.7c0.4,0.1,0.8,0,1-0.4c0.4-1,0.8-2,1-3l0-0.1l-2.7-1l-0.1,0c-0.1,0-0.1-0.1-0.2-0.1
		c-0.1-0.1-0.2-0.3-0.3-0.4c0-0.1,0-0.1,0-0.2c0-0.2,0-0.4,0.1-0.6c0.1-0.6,0.1-1.2,0.1-1.7c0-0.6-0.1-1.2-0.1-1.8l0-0.1
		c0-0.1,0-0.1,0-0.2c0-0.2,0.2-0.4,0.4-0.5c0.1-0.1,0.1-0.1,0.2-0.1l2-0.7c0.4-0.1,0.6-0.6,0.5-1c-0.3-1-0.7-2-1.1-2.9l-0.1-0.1
		l-2.7,1l-0.1,0c-0.1,0-0.1,0-0.2,0c-0.2,0-0.4-0.1-0.5-0.2c-0.1-0.1-0.1-0.1-0.2-0.1c-0.1-0.2-0.2-0.3-0.3-0.5
		c-0.3-0.5-0.7-1-1.1-1.4c-0.4-0.4-0.8-0.9-1.2-1.3l-0.1-0.1c-0.1-0.1-0.1-0.1-0.1-0.2c-0.1-0.2-0.1-0.4-0.1-0.6
		c0-0.1,0-0.1,0.1-0.2l1.1-1.8c0.2-0.4,0.1-0.8-0.2-1.1c-0.9-0.6-1.8-1.1-2.8-1.5l-0.1-0.1l-1.4,2.5l-0.1,0.1
		c-0.1,0.1-0.1,0.1-0.1,0.2c-0.1,0.1-0.3,0.2-0.5,0.2c-0.1,0-0.1,0-0.2,0c-0.2-0.1-0.4-0.1-0.6-0.2c-0.6-0.2-1.1-0.3-1.7-0.4
		c-0.6-0.1-1.2-0.1-1.8-0.2l-0.1,0c-0.1,0-0.1,0-0.2-0.1c-0.2-0.1-0.4-0.2-0.4-0.4c0-0.1,0-0.1-0.1-0.2l-0.4-2.1
		c-0.1-0.4-0.4-0.7-0.9-0.7c-1,0.1-2.1,0.3-3.1,0.6l-0.1,0l0.5,2.8l0,0.1c0,0.1,0,0.1,0,0.2c0,0.2-0.1,0.3-0.3,0.5
		c-0.1,0.1-0.1,0.1-0.2,0.1c-0.2,0.1-0.4,0.2-0.6,0.2c-0.5,0.2-1.1,0.5-1.6,0.8c-0.5,0.3-1,0.6-1.4,1l-0.1,0.1
		c-0.1,0-0.1,0.1-0.2,0.1c-0.2,0.1-0.4,0-0.6-0.1c-0.1,0-0.1-0.1-0.2-0.1l-1.6-1.4c-0.3-0.3-0.8-0.3-1.1,0c-0.7,0.8-1.4,1.6-2,2.4
		l-0.1,0.1l2.2,1.8l0.1,0.1c0.1,0.1,0.1,0.1,0.1,0.2c0.1,0.2,0.1,0.3,0.1,0.5c0,0.1,0,0.1-0.1,0.2c-0.1,0.2-0.2,0.4-0.3,0.5
		c-0.3,0.5-0.5,1.1-0.7,1.6c-0.2,0.6-0.3,1.1-0.5,1.7l0,0.1c0,0.1,0,0.1-0.1,0.2c-0.1,0.2-0.3,0.3-0.5,0.4c-0.1,0-0.1,0-0.2,0
		l-2.1,0c-0.4,0-0.8,0.3-0.8,0.7c-0.1,1-0.1,2.1,0.1,3.1l0,0.1l2.9,0l0.1,0c0.1,0,0.1,0,0.2,0.1c0.2,0.1,0.3,0.2,0.4,0.3
		c0.1,0.1,0.1,0.1,0.1,0.2c0.1,0.2,0.1,0.4,0.1,0.6c0.1,0.6,0.3,1.1,0.5,1.7c0.2,0.5,0.5,1.1,0.7,1.6l0,0.1c0,0.1,0,0.1,0.1,0.2
		c0,0.2,0,0.4-0.2,0.6c-0.1,0.1-0.1,0.1-0.1,0.2l-1.6,1.4c-0.3,0.3-0.4,0.7-0.1,1.1c0.6,0.9,1.3,1.6,2.1,2.4l0.1,0.1l2.2-1.8
		l0.1-0.1c0.1,0,0.1-0.1,0.2-0.1c0.2-0.1,0.4-0.1,0.5,0c0.1,0,0.1,0,0.2,0.1c0.2,0.1,0.3,0.2,0.5,0.4c0.5,0.3,1,0.7,1.5,0.9
		c0.5,0.3,1,0.5,1.6,0.8l0.1,0c0.1,0.1,0.1,0.1,0.2,0.1c0.2,0.1,0.3,0.3,0.3,0.6c0,0.1,0,0.1,0,0.2l-0.4,2.1
		c-0.1,0.4,0.2,0.8,0.6,0.9c1,0.3,2.1,0.4,3.1,0.5l0.1,0l0.5-2.8l0-0.1c0-0.1,0-0.1,0.1-0.2C37.3,48.9,37.3,48.8,37.5,48.7
		C37.4,48.7,37.5,48.7,37.5,48.7z M31.9,28.5c0.3-0.3,0.7-0.5,1-0.8c0.7-0.5,1.5-0.8,2.3-1.1c1.1-0.3,2.3-0.4,3.5-0.3
		c1,0.1,2.1,0.5,3,1c0.9,0.5,1.7,1.1,2.4,1.9c0.6,0.7,1.1,1.5,1.5,2.3c0.3,0.7,0.5,1.5,0.6,2.3c0.1,0.9,0.1,1.7-0.1,2.6
		c-0.3,1.9-1.3,3.6-2.7,4.8c-0.8,0.7-1.7,1.3-2.7,1.7c-1,0.4-2,0.6-3,0.6c-0.8,0-1.6-0.1-2.3-0.3c-1.8-0.5-3.5-1.5-4.6-3
		c-0.5-0.7-1-1.4-1.3-2.2c-0.4-1-0.6-2-0.6-3c0-1.1,0.2-2.3,0.6-3.3c0.3-0.8,0.8-1.6,1.4-2.3c0.2-0.3,0.5-0.5,0.7-0.8
		C31.7,28.7,31.7,28.7,31.9,28.5z M32.8,30c-0.2,0.2-0.4,0.4-0.6,0.6c-0.5,0.6-0.8,1.2-1.1,1.9c-0.3,0.8-0.5,1.8-0.5,2.7
		c0,0.8,0.2,1.6,0.5,2.4c0.2,0.6,0.6,1.2,1,1.8c0.9,1.1,2.2,2,3.6,2.4c0.7,0.2,1.3,0.3,2,0.3c0.8,0,1.6-0.2,2.4-0.5
		c0.8-0.3,1.5-0.8,2.1-1.3c1.1-1,1.9-2.4,2.1-3.9c0.1-0.7,0.1-1.4,0.1-2.1c-0.1-0.6-0.2-1.3-0.5-1.9c-0.3-0.7-0.7-1.3-1.2-1.9
		c-0.6-0.6-1.2-1.2-1.9-1.5c-0.7-0.4-1.6-0.7-2.4-0.8c-0.9-0.1-1.9,0-2.8,0.2c-0.7,0.2-1.3,0.5-1.9,0.8c-0.3,0.2-0.5,0.4-0.8,0.6
		C32.9,29.9,32.9,29.9,32.8,30z"/>
</g>
</svg>
