<?xml version="1.0" encoding="utf-8"?>
<!-- Generator: Adobe Illustrator 21.0.1, SVG Export Plug-In . SVG Version: 6.00 Build 0)  -->
<svg version="1.1" id="Layer_1" xmlns="http://www.w3.org/2000/svg" xmlns:xlink="http://www.w3.org/1999/xlink" x="0px" y="0px"
	 viewBox="0 0 80 80" style="enable-background:new 0 0 80 80;" xml:space="preserve">
<style type="text/css">
	.st0{fill:#39314C;}
	.st1{fill:#FFFFFF;}
	.st2{fill:none;stroke:#48E584;stroke-width:2;stroke-linejoin:round;stroke-miterlimit:10;}
	.st3{fill:none;stroke:#39314C;stroke-width:2;stroke-linejoin:round;stroke-miterlimit:10;}
	.st4{fill:#48E584;}
	.st5{fill:none;stroke:#39314C;stroke-width:2;stroke-miterlimit:10;}
	.st6{fill:none;stroke:#48E584;stroke-width:2;stroke-linecap:round;stroke-miterlimit:10;}
	.st7{fill:none;stroke:#39314C;stroke-width:2;stroke-linecap:round;stroke-miterlimit:10;}
	.st8{clip-path:url(#SVGID_2_);}
	.st9{clip-path:url(#SVGID_4_);fill:#39314C;}
	.st10{clip-path:url(#SVGID_6_);}
	.st11{clip-path:url(#SVGID_8_);fill:#39314C;}
	.st12{fill:none;stroke:#39314C;stroke-width:1.9425;stroke-miterlimit:10;}
	.st13{fill-rule:evenodd;clip-rule:evenodd;fill:#39314C;}
	.st14{fill-rule:evenodd;clip-rule:evenodd;fill:none;stroke:#39314C;stroke-width:2;stroke-miterlimit:10;}
	.st15{fill-rule:evenodd;clip-rule:evenodd;fill:#39314C;stroke:#39314C;stroke-width:1.6222;stroke-miterlimit:10;}
	.st16{clip-path:url(#SVGID_10_);}
	.st17{clip-path:url(#SVGID_12_);}
	.st18{fill:#FFFFFF;stroke:#39314C;stroke-width:2;stroke-linejoin:round;stroke-miterlimit:10;}
	.st19{clip-path:url(#SVGID_14_);}
	.st20{clip-path:url(#SVGID_16_);fill:#48E584;}
	.st21{fill:#39314C;stroke:#39314C;stroke-width:2;stroke-miterlimit:10;}
	.st22{fill:#48E584;stroke:#48E584;stroke-linecap:round;stroke-miterlimit:10;}
	.st23{fill:#39314C;stroke:#39314C;stroke-miterlimit:10;}
	.st24{fill:#48E584;stroke:#48E584;stroke-width:2;stroke-linecap:round;stroke-miterlimit:10;}
	.st25{fill:#FFFFFF;stroke:#48E584;stroke-width:2;stroke-linecap:round;stroke-linejoin:round;stroke-miterlimit:10;}
	.st26{fill:#FFFFFF;stroke:#39314C;stroke-width:2;stroke-miterlimit:10;}
	.st27{fill:#FFFFFF;stroke:#39314C;stroke-width:2;stroke-linecap:round;stroke-miterlimit:10;}
	.st28{fill:#48E584;stroke:#39314C;stroke-width:2;stroke-miterlimit:10;}
	.st29{fill:none;stroke:#39314C;stroke-width:3;stroke-miterlimit:10;}
	.st30{fill:none;stroke:#39314C;stroke-width:3;stroke-linejoin:round;stroke-miterlimit:10;}
</style>
<g>
	<defs>
		<path id="SVGID_9_" d="M-319.4,32.8c-1.6,0-3-1.3-3-3s1.3-3,3-3s3,1.3,3,3S-317.7,32.8-319.4,32.8z M-318.9,42.5h10.2
			c0.7,0,1.3-0.6,1.3-1.3c0-0.7-0.6-1.3-1.3-1.3h-10.2c-4.9,0-8.9-4-8.9-8.9v-0.4c0-4.9,4-8.9,8.9-8.9c4.9,0,8.9,4,8.9,8.9v0.9
			c0,1.1-0.9,1.9-1.9,1.9s-1.9-0.9-1.9-1.9v-1.8c0-3.1-2.5-5.5-5.5-5.5s-5.5,2.5-5.5,5.5c0,3.1,2.5,5.5,5.5,5.5
			c1.4,0,2.7-0.5,3.6-1.4c0.8,1.3,2.2,2.1,3.8,2.1c2.5,0,4.5-2,4.5-4.5v-0.9c0-6.3-5.2-11.5-11.5-11.5s-11.5,5.2-11.5,11.5V31
			C-330.4,37.4-325.3,42.5-318.9,42.5z"/>
	</defs>
	<clipPath id="SVGID_2_">
		<use xlink:href="#SVGID_9_"  style="overflow:visible;"/>
	</clipPath>
	<g class="st8">
		<defs>
			<rect id="SVGID_11_" x="-852.7" y="-742" width="1058.3" height="1313.9"/>
		</defs>
		<clipPath id="SVGID_4_">
			<use xlink:href="#SVGID_11_"  style="overflow:visible;"/>
		</clipPath>
	</g>
</g>
<g>
	<g>
		<defs>
			<path id="SVGID_13_" d="M-319.6-67.5c-1.6,0-3-1.3-3-3s1.3-3,3-3c1.6,0,3,1.3,3,3S-317.9-67.5-319.6-67.5z M-319.1-57.7h10.2
				c0.7,0,1.3-0.6,1.3-1.3c0-0.7-0.6-1.3-1.3-1.3h-10.2c-4.9,0-8.9-4-8.9-8.9v-0.4c0-4.9,4-8.9,8.9-8.9c4.9,0,8.9,4,8.9,8.9v0.9
				c0,1.1-0.9,1.9-1.9,1.9s-1.9-0.9-1.9-1.9v-1.8c0-3.1-2.5-5.5-5.5-5.5s-5.5,2.5-5.5,5.5c0,3.1,2.5,5.5,5.5,5.5
				c1.4,0,2.7-0.5,3.6-1.4c0.8,1.3,2.2,2.1,3.8,2.1c2.5,0,4.5-2,4.5-4.5v-0.9c0-6.3-5.2-11.5-11.5-11.5c-6.3,0-11.5,5.2-11.5,11.5
				v0.4C-330.6-62.9-325.4-57.7-319.1-57.7z"/>
		</defs>
		<clipPath id="SVGID_6_">
			<use xlink:href="#SVGID_13_"  style="overflow:visible;"/>
		</clipPath>
		<g class="st10">
			<defs>
				<rect id="SVGID_15_" x="-852.9" y="-842.2" width="1058.3" height="1313.9"/>
			</defs>
			<clipPath id="SVGID_8_">
				<use xlink:href="#SVGID_15_"  style="overflow:visible;"/>
			</clipPath>
		</g>
	</g>
</g>
<g>
	<g>
		<polyline class="st1" points="11.7,75.4 3.7,75.4 3.7,67.4 		"/>
		<path class="st4" d="M11.7,76.4h-8c-0.6,0-1-0.4-1-1v-8c0-0.6,0.4-1,1-1s1,0.4,1,1v7h7c0.6,0,1,0.4,1,1S12.3,76.4,11.7,76.4z"/>
	</g>
	<g>
		<line class="st1" x1="3.7" y1="75.4" x2="12.1" y2="67.1"/>
		<path class="st4" d="M3.7,76.4c-0.3,0-0.5-0.1-0.7-0.3c-0.4-0.4-0.4-1,0-1.4l8.3-8.3c0.4-0.4,1-0.4,1.4,0s0.4,1,0,1.4l-8.3,8.3
			C4.3,76.3,4,76.4,3.7,76.4z"/>
	</g>
</g>
<g>
	<g>
		<g>
			<path class="st1" d="M55.5,52.2H7.1c-1.2,0-2.2-1-2.2-2.2V17.4c0-1.2,1-2.2,2.2-2.2h48.4c1.2,0,2.2,1,2.2,2.2V50
				C57.7,51.2,56.7,52.2,55.5,52.2z"/>
			<path class="st0" d="M55.5,53.2H7.1c-1.8,0-3.2-1.5-3.2-3.2V17.4c0-1.8,1.5-3.2,3.2-3.2h48.4c1.8,0,3.2,1.5,3.2,3.2V50
				C58.7,51.8,57.3,53.2,55.5,53.2z M7.1,16.2c-0.7,0-1.2,0.6-1.2,1.2V50c0,0.7,0.6,1.2,1.2,1.2h48.4c0.7,0,1.2-0.6,1.2-1.2V17.4
				c0-0.7-0.6-1.2-1.2-1.2H7.1z"/>
		</g>
		<g>
			<rect x="4.9" y="24.4" class="st0" width="52.9" height="2"/>
		</g>
		<g>
			<rect x="19" y="25.5" class="st0" width="2" height="26.7"/>
		</g>
		<g>
			<g>
				<path class="st0" d="M16.6,32.3H8.1c-0.6,0-1-0.4-1-1s0.4-1,1-1h8.5c0.6,0,1,0.4,1,1S17.1,32.3,16.6,32.3z"/>
			</g>
			<g>
				<path class="st0" d="M54,32.3H23.3c-0.6,0-1-0.4-1-1s0.4-1,1-1H54c0.6,0,1,0.4,1,1S54.6,32.3,54,32.3z"/>
			</g>
		</g>
		<g>
			<g>
				<path class="st0" d="M16.6,37.3H8.1c-0.6,0-1-0.4-1-1s0.4-1,1-1h8.5c0.6,0,1,0.4,1,1S17.1,37.3,16.6,37.3z"/>
			</g>
			<g>
				<path class="st0" d="M54,37.3H23.3c-0.6,0-1-0.4-1-1s0.4-1,1-1H54c0.6,0,1,0.4,1,1S54.6,37.3,54,37.3z"/>
			</g>
		</g>
		<g>
			<g>
				<path class="st0" d="M16.6,42.4H8.1c-0.6,0-1-0.4-1-1s0.4-1,1-1h8.5c0.6,0,1,0.4,1,1S17.1,42.4,16.6,42.4z"/>
			</g>
			<g>
				<path class="st0" d="M54,42.4H23.3c-0.6,0-1-0.4-1-1s0.4-1,1-1H54c0.6,0,1,0.4,1,1S54.6,42.4,54,42.4z"/>
			</g>
		</g>
		<g>
			<circle class="st1" cx="11.2" cy="20.1" r="0.9"/>
			<path class="st0" d="M11.2,22c-1,0-1.9-0.9-1.9-1.9s0.9-1.9,1.9-1.9s1.9,0.9,1.9,1.9S12.2,22,11.2,22z M11.2,20
				c-0.1,0-0.1,0-0.1,0.1c0,0.1,0.2,0.1,0.2,0C11.3,20,11.2,20,11.2,20z"/>
		</g>
		<g>
			<circle class="st1" cx="17.4" cy="20.1" r="0.9"/>
			<path class="st0" d="M17.4,22c-1,0-1.9-0.9-1.9-1.9s0.9-1.9,1.9-1.9s1.9,0.9,1.9,1.9S18.5,22,17.4,22z M17.4,20
				c-0.1,0-0.1,0-0.1,0.1c0,0.1,0.2,0.1,0.2,0C17.5,20,17.5,20,17.4,20z"/>
		</g>
		<g>
			<circle class="st1" cx="23.7" cy="20.1" r="0.9"/>
			<path class="st0" d="M23.7,22c-1,0-1.9-0.9-1.9-1.9s0.9-1.9,1.9-1.9s1.9,0.9,1.9,1.9S24.7,22,23.7,22z M23.7,20
				c-0.1,0-0.1,0-0.1,0.1c0,0.1,0.2,0.1,0.2,0C23.8,20,23.7,20,23.7,20z"/>
		</g>
	</g>
	<g>
		<g>
			<path class="st1" d="M74.9,66.8H26.5c-1.2,0-2.2-1-2.2-2.2V32c0-1.2,1-2.2,2.2-2.2h48.4c1.2,0,2.2,1,2.2,2.2v32.6
				C77.1,65.8,76.1,66.8,74.9,66.8z"/>
			<path class="st0" d="M74.9,67.8H26.5c-1.8,0-3.2-1.5-3.2-3.2V32c0-1.8,1.5-3.2,3.2-3.2h48.4c1.8,0,3.2,1.5,3.2,3.2v32.6
				C78.1,66.3,76.7,67.8,74.9,67.8z M26.5,30.8c-0.7,0-1.2,0.6-1.2,1.2v32.6c0,0.7,0.6,1.2,1.2,1.2h48.4c0.7,0,1.2-0.6,1.2-1.2V32
				c0-0.7-0.6-1.2-1.2-1.2H26.5z"/>
		</g>
		<g>
			<rect x="23.8" y="39" class="st0" width="52.9" height="2"/>
		</g>
		<g>
			<rect x="37.9" y="40" class="st0" width="2" height="26.7"/>
		</g>
		<g>
			<g>
				<path class="st0" d="M35.5,46.9H27c-0.6,0-1-0.4-1-1s0.4-1,1-1h8.5c0.6,0,1,0.4,1,1S36.1,46.9,35.5,46.9z"/>
			</g>
			<g>
				<path class="st0" d="M73,35.6h-5.4c-0.6,0-1-0.4-1-1s0.4-1,1-1H73c0.6,0,1,0.4,1,1S73.5,35.6,73,35.6z"/>
			</g>
			<g>
				<path class="st0" d="M63.9,35.6H51.3c-0.6,0-1-0.4-1-1s0.4-1,1-1h12.6c0.6,0,1,0.4,1,1S64.5,35.6,63.9,35.6z"/>
			</g>
			<g>
				<path class="st0" d="M53.5,21.1H48c-0.6,0-1-0.4-1-1s0.4-1,1-1h5.4c0.6,0,1,0.4,1,1S54,21.1,53.5,21.1z"/>
			</g>
			<g>
				<path class="st0" d="M44.4,21.1H31.8c-0.6,0-1-0.4-1-1s0.4-1,1-1h12.6c0.6,0,1,0.4,1,1S45,21.1,44.4,21.1z"/>
			</g>
		</g>
		<g>
			<g>
				<path class="st0" d="M35.5,51.9H27c-0.6,0-1-0.4-1-1s0.4-1,1-1h8.5c0.6,0,1,0.4,1,1S36.1,51.9,35.5,51.9z"/>
			</g>
			<g>
				<path class="st0" d="M73,51.9H42.2c-0.6,0-1-0.4-1-1s0.4-1,1-1H73c0.6,0,1,0.4,1,1S73.5,51.9,73,51.9z"/>
			</g>
		</g>
		<g>
			<g>
				<path class="st0" d="M35.5,56.9H27c-0.6,0-1-0.4-1-1s0.4-1,1-1h8.5c0.6,0,1,0.4,1,1S36.1,56.9,35.5,56.9z"/>
			</g>
			<g>
				<path class="st0" d="M73,56.9H42.2c-0.6,0-1-0.4-1-1s0.4-1,1-1H73c0.6,0,1,0.4,1,1S73.5,56.9,73,56.9z"/>
			</g>
		</g>
		<g>
			<circle class="st1" cx="30.1" cy="34.6" r="0.9"/>
			<path class="st0" d="M30.1,36.5c-1,0-1.9-0.9-1.9-1.9s0.9-1.9,1.9-1.9s1.9,0.9,1.9,1.9S31.2,36.5,30.1,36.5z M30.1,34.5
				c-0.1,0-0.1,0-0.1,0.1c0,0.1,0.2,0.1,0.2,0C30.2,34.6,30.2,34.5,30.1,34.5z"/>
		</g>
		<g>
			<circle class="st1" cx="36.4" cy="34.6" r="0.9"/>
			<path class="st0" d="M36.4,36.5c-1,0-1.9-0.9-1.9-1.9s0.9-1.9,1.9-1.9s1.9,0.9,1.9,1.9S37.4,36.5,36.4,36.5z M36.4,34.5
				c-0.1,0-0.1,0-0.1,0.1c0,0.1,0.2,0.1,0.2,0C36.5,34.6,36.4,34.5,36.4,34.5z"/>
		</g>
		<g>
			<circle class="st1" cx="42.6" cy="34.6" r="0.9"/>
			<path class="st0" d="M42.6,36.5c-1,0-1.9-0.9-1.9-1.9s0.9-1.9,1.9-1.9s1.9,0.9,1.9,1.9S43.7,36.5,42.6,36.5z M42.6,34.5
				c-0.1,0-0.1,0-0.1,0.1c0,0.1,0.2,0.1,0.2,0C42.7,34.6,42.7,34.5,42.6,34.5z"/>
		</g>
	</g>
</g>
<g>
	<g>
		<polyline class="st1" points="68.7,3.7 76.7,3.7 76.7,11.7 		"/>
		<path class="st4" d="M76.7,12.7c-0.6,0-1-0.4-1-1v-7h-7c-0.6,0-1-0.4-1-1s0.4-1,1-1h8c0.6,0,1,0.4,1,1v8
			C77.7,12.3,77.2,12.7,76.7,12.7z"/>
	</g>
	<g>
		<line class="st1" x1="76.7" y1="3.7" x2="68.4" y2="12"/>
		<path class="st4" d="M68.4,13c-0.3,0-0.5-0.1-0.7-0.3c-0.4-0.4-0.4-1,0-1.4L76,3c0.4-0.4,1-0.4,1.4,0s0.4,1,0,1.4l-8.3,8.3
			C68.9,12.9,68.6,13,68.4,13z"/>
	</g>
</g>
</svg>
