<?xml version="1.0" encoding="utf-8"?>
<!-- Generator: Adobe Illustrator 21.0.2, SVG Export Plug-In . SVG Version: 6.00 Build 0)  -->
<svg version="1.1" id="Layer_1" xmlns="http://www.w3.org/2000/svg" xmlns:xlink="http://www.w3.org/1999/xlink" x="0px" y="0px"
	 viewBox="0 0 80 80" style="enable-background:new 0 0 80 80;" xml:space="preserve">
<style type="text/css">
	.st0{fill:#39314C;}
	.st1{opacity:0.3;}
	.st2{fill:#998DB2;}
	.st3{fill:#48E584;}
</style>
<g>
	<circle class="st0" cx="40.2" cy="41.2" r="35.7"/>
</g>
<g>
	<g class="st1">
		<path d="M30.6,37.7c0.2-0.9,0.8-1.7,1.8-1.8c1.4-0.3,2.7,0.8,2.7,2.2c0,0.4-0.1,0.8-0.3,1.1c-0.1,0.1,0,0.2,0.1,0.2H38
			c0.5,0,0.8-0.4,0.8-0.8v-3.9c0.5,0.4,1.3,0.7,2,0.5c0.9-0.3,1.6-1,1.7-1.9c0.2-1.3-0.9-2.5-2.3-2.5c-0.6,0-1.1,0.3-1.5,0.6v-3.9
			c0-0.5-0.4-0.8-0.8-0.8H26.7c-0.5,0-0.8,0.4-0.8,0.8v11.2c0,0.5,0.4,0.8,0.8,0.8h4c0.1,0,0.2-0.1,0.1-0.2
			C30.6,38.7,30.5,38.2,30.6,37.7z"/>
	</g>
	<g class="st1">
		<path d="M37.3,53.8c-0.9-0.2-1.7-0.8-1.8-1.8c-0.3-1.4,0.8-2.7,2.2-2.7c0.4,0,0.8,0.1,1.1,0.3c0.1,0.1,0.2,0,0.2-0.1v-3.3
			c0-0.4-0.3-0.8-0.8-0.8h-3.9c0.4-0.5,0.7-1.3,0.5-2c-0.3-0.9-1-1.6-1.9-1.7c-1.3-0.2-2.5,0.9-2.5,2.3c0,0.6,0.3,1.1,0.6,1.5h-3.9
			c-0.4,0-0.8,0.3-0.8,0.8v11.2c0,0.4,0.3,0.8,0.8,0.8h11.2c0.4,0,0.8-0.3,0.8-0.8v-3.8c0-0.1-0.1-0.2-0.2-0.1
			C38.3,53.8,37.8,53.9,37.3,53.8z"/>
	</g>
	<g class="st1">
		<path d="M53.7,47.2c-0.2,0.9-0.8,1.7-1.8,1.8c-1.4,0.3-2.7-0.8-2.7-2.2c0-0.4,0.1-0.8,0.3-1.1c0.1-0.1,0-0.2-0.1-0.2h-3.3
			c-0.5,0-0.8,0.4-0.8,0.8v3.9c-0.5-0.4-1.3-0.7-2-0.5c-0.9,0.3-1.6,1-1.7,1.9c-0.2,1.3,0.9,2.5,2.3,2.5c0.6,0,1.1-0.3,1.5-0.6v3.9
			c0,0.5,0.4,0.8,0.8,0.8h11.1c0.5,0,0.8-0.4,0.8-0.8V46.4c0-0.5-0.4-0.8-0.8-0.8h-3.8c-0.1,0-0.2,0.1-0.1,0.2
			C53.7,46.1,53.8,46.6,53.7,47.2z"/>
	</g>
	<g class="st1">
		<path d="M46.9,31c0.9,0.2,1.7,0.8,1.8,1.8c0.3,1.4-0.8,2.7-2.2,2.7c-0.4,0-0.8-0.1-1.1-0.3c-0.1-0.1-0.2,0-0.2,0.1v3.3
			c0,0.5,0.4,0.8,0.8,0.8h3.9c-0.4,0.5-0.7,1.3-0.5,2c0.3,0.9,1,1.6,1.9,1.7c1.3,0.2,2.5-0.9,2.5-2.3c0-0.6-0.3-1.1-0.6-1.5h3.9
			c0.5,0,0.8-0.4,0.8-0.8V27.1c0-0.5-0.4-0.8-0.8-0.8H46.2c-0.5,0-0.8,0.4-0.8,0.8V31c0,0.1,0.1,0.2,0.2,0.1
			C45.9,31,46.4,30.9,46.9,31z"/>
	</g>
	<g>
		<path class="st2" d="M28.9,36.1c0.2-0.9,0.8-1.7,1.8-1.8c1.4-0.3,2.7,0.8,2.7,2.2c0,0.4-0.1,0.8-0.3,1.1c-0.1,0.1,0,0.2,0.1,0.2
			h3.3c0.5,0,0.8-0.4,0.8-0.8v-3.9c0.5,0.4,1.3,0.7,2,0.5c0.9-0.3,1.6-1,1.7-1.9c0.2-1.3-0.9-2.5-2.3-2.5c-0.6,0-1.1,0.3-1.5,0.6
			v-3.9c0-0.5-0.4-0.8-0.8-0.8H25.1c-0.5,0-0.8,0.4-0.8,0.8v11.2c0,0.5,0.4,0.8,0.8,0.8h4c0.1,0,0.2-0.1,0.1-0.2
			C29,37.1,28.8,36.6,28.9,36.1z"/>
	</g>
	<g>
		<path class="st2" d="M35.7,52.2c-0.9-0.2-1.7-0.8-1.8-1.8c-0.3-1.4,0.8-2.7,2.2-2.7c0.4,0,0.8,0.1,1.1,0.3c0.1,0.1,0.2,0,0.2-0.1
			v-3.3c0-0.4-0.3-0.8-0.8-0.8h-3.9c0.4-0.5,0.7-1.3,0.5-2c-0.3-0.9-1-1.6-1.9-1.7c-1.3-0.2-2.5,0.9-2.5,2.3c0,0.6,0.3,1.1,0.6,1.5
			h-3.9c-0.4,0-0.8,0.3-0.8,0.8V56c0,0.4,0.3,0.8,0.8,0.8h11.2c0.4,0,0.8-0.3,0.8-0.8v-3.8c0-0.1-0.1-0.2-0.2-0.1
			C36.7,52.2,36.2,52.3,35.7,52.2z"/>
	</g>
	<g>
		<path class="st2" d="M52,45.5c-0.2,0.9-0.8,1.7-1.8,1.8c-1.4,0.3-2.7-0.8-2.7-2.2c0-0.4,0.1-0.8,0.3-1.1c0.1-0.1,0-0.2-0.1-0.2
			h-3.3c-0.5,0-0.8,0.4-0.8,0.8v3.9c-0.5-0.4-1.3-0.7-2-0.5c-0.9,0.3-1.6,1-1.7,1.9c-0.2,1.3,0.9,2.5,2.3,2.5c0.6,0,1.1-0.3,1.5-0.6
			v3.9c0,0.5,0.4,0.8,0.8,0.8h11.1c0.5,0,0.8-0.4,0.8-0.8V44.7c0-0.5-0.4-0.8-0.8-0.8h-3.8c-0.1,0-0.2,0.1-0.1,0.2
			C52,44.4,52.1,44.9,52,45.5z"/>
	</g>
	<g>
		<path class="st3" d="M45.3,29.3c0.9,0.2,1.7,0.8,1.8,1.8c0.3,1.4-0.8,2.7-2.2,2.7c-0.4,0-0.8-0.1-1.1-0.3c-0.1-0.1-0.2,0-0.2,0.1
			v3.3c0,0.5,0.4,0.8,0.8,0.8h3.9c-0.4,0.5-0.7,1.3-0.5,2c0.3,0.9,1,1.6,1.9,1.7c1.3,0.2,2.5-0.9,2.5-2.3c0-0.6-0.3-1.1-0.6-1.5h3.9
			c0.5,0,0.8-0.4,0.8-0.8V25.5c0-0.5-0.4-0.8-0.8-0.8H44.5c-0.5,0-0.8,0.4-0.8,0.8v3.8c0,0.1,0.1,0.2,0.2,0.1
			C44.3,29.4,44.8,29.2,45.3,29.3z"/>
	</g>
</g>
</svg>
