<?xml version="1.0" encoding="utf-8"?>
<!-- Generator: Adobe Illustrator 21.0.1, SVG Export Plug-In . SVG Version: 6.00 Build 0)  -->
<svg version="1.1" id="Layer_1" xmlns="http://www.w3.org/2000/svg" xmlns:xlink="http://www.w3.org/1999/xlink" x="0px" y="0px"
	 viewBox="0 0 80 80" style="enable-background:new 0 0 80 80;" xml:space="preserve">
<style type="text/css">
	.st0{fill:#39314C;}
	.st1{fill:#FFFFFF;}
	.st2{fill:none;stroke:#48E584;stroke-width:2;stroke-linejoin:round;stroke-miterlimit:10;}
	.st3{fill:none;stroke:#39314C;stroke-width:2;stroke-linejoin:round;stroke-miterlimit:10;}
	.st4{fill:#48E584;}
	.st5{fill:none;stroke:#39314C;stroke-width:2;stroke-miterlimit:10;}
	.st6{fill:none;stroke:#48E584;stroke-width:2;stroke-linecap:round;stroke-miterlimit:10;}
	.st7{fill:none;stroke:#39314C;stroke-width:2;stroke-linecap:round;stroke-miterlimit:10;}
	.st8{clip-path:url(#SVGID_2_);}
	.st9{clip-path:url(#SVGID_4_);fill:#39314C;}
	.st10{clip-path:url(#SVGID_6_);}
	.st11{clip-path:url(#SVGID_8_);fill:#39314C;}
	.st12{fill:none;stroke:#39314C;stroke-width:1.9425;stroke-miterlimit:10;}
	.st13{fill-rule:evenodd;clip-rule:evenodd;fill:#39314C;}
	.st14{fill-rule:evenodd;clip-rule:evenodd;fill:none;stroke:#39314C;stroke-width:2;stroke-miterlimit:10;}
	.st15{fill-rule:evenodd;clip-rule:evenodd;fill:#39314C;stroke:#39314C;stroke-width:1.6222;stroke-miterlimit:10;}
	.st16{clip-path:url(#SVGID_10_);}
	.st17{clip-path:url(#SVGID_12_);}
	.st18{fill:#FFFFFF;stroke:#39314C;stroke-width:2;stroke-linejoin:round;stroke-miterlimit:10;}
	.st19{clip-path:url(#SVGID_14_);}
	.st20{clip-path:url(#SVGID_16_);fill:#48E584;}
	.st21{fill:#39314C;stroke:#39314C;stroke-width:2;stroke-miterlimit:10;}
	.st22{fill:#48E584;stroke:#48E584;stroke-linecap:round;stroke-miterlimit:10;}
	.st23{fill:#39314C;stroke:#39314C;stroke-miterlimit:10;}
	.st24{fill:#48E584;stroke:#48E584;stroke-width:2;stroke-linecap:round;stroke-miterlimit:10;}
	.st25{fill:#FFFFFF;stroke:#48E584;stroke-width:2;stroke-linecap:round;stroke-linejoin:round;stroke-miterlimit:10;}
	.st26{fill:#FFFFFF;stroke:#39314C;stroke-width:2;stroke-miterlimit:10;}
	.st27{fill:#FFFFFF;stroke:#39314C;stroke-width:2;stroke-linecap:round;stroke-miterlimit:10;}
	.st28{fill:#48E584;stroke:#39314C;stroke-width:2;stroke-miterlimit:10;}
	.st29{fill:none;stroke:#39314C;stroke-width:3;stroke-miterlimit:10;}
	.st30{fill:none;stroke:#39314C;stroke-width:3;stroke-linejoin:round;stroke-miterlimit:10;}
</style>
<g>
	<defs>
		<path id="SVGID_9_" d="M-438.4,32.8c-1.6,0-3-1.3-3-3s1.3-3,3-3c1.6,0,3,1.3,3,3S-436.8,32.8-438.4,32.8z M-437.9,42.5h10.2
			c0.7,0,1.3-0.6,1.3-1.3c0-0.7-0.6-1.3-1.3-1.3h-10.2c-4.9,0-8.9-4-8.9-8.9v-0.4c0-4.9,4-8.9,8.9-8.9c4.9,0,8.9,4,8.9,8.9v0.9
			c0,1.1-0.9,1.9-1.9,1.9s-1.9-0.9-1.9-1.9v-1.8c0-3.1-2.5-5.5-5.5-5.5s-5.5,2.5-5.5,5.5c0,3.1,2.5,5.5,5.5,5.5
			c1.4,0,2.7-0.5,3.6-1.4c0.8,1.3,2.2,2.1,3.8,2.1c2.5,0,4.5-2,4.5-4.5v-0.9c0-6.3-5.2-11.5-11.5-11.5c-6.3,0-11.5,5.2-11.5,11.5V31
			C-449.4,37.4-444.3,42.5-437.9,42.5z"/>
	</defs>
	<clipPath id="SVGID_2_">
		<use xlink:href="#SVGID_9_"  style="overflow:visible;"/>
	</clipPath>
	<g class="st8">
		<defs>
			<rect id="SVGID_11_" x="-971.7" y="-742" width="1058.3" height="1313.9"/>
		</defs>
		<clipPath id="SVGID_4_">
			<use xlink:href="#SVGID_11_"  style="overflow:visible;"/>
		</clipPath>
	</g>
</g>
<g>
	<g>
		<defs>
			<path id="SVGID_13_" d="M-438.6-67.5c-1.6,0-3-1.3-3-3s1.3-3,3-3c1.6,0,3,1.3,3,3S-436.9-67.5-438.6-67.5z M-438.1-57.7h10.2
				c0.7,0,1.3-0.6,1.3-1.3c0-0.7-0.6-1.3-1.3-1.3h-10.2c-4.9,0-8.9-4-8.9-8.9v-0.4c0-4.9,4-8.9,8.9-8.9s8.9,4,8.9,8.9v0.9
				c0,1.1-0.9,1.9-1.9,1.9s-1.9-0.9-1.9-1.9v-1.8c0-3.1-2.5-5.5-5.5-5.5c-3.1,0-5.5,2.5-5.5,5.5c0,3.1,2.5,5.5,5.5,5.5
				c1.4,0,2.7-0.5,3.6-1.4c0.8,1.3,2.2,2.1,3.8,2.1c2.5,0,4.5-2,4.5-4.5v-0.9c0-6.3-5.2-11.5-11.5-11.5s-11.5,5.2-11.5,11.5v0.4
				C-449.6-62.9-444.4-57.7-438.1-57.7z"/>
		</defs>
		<clipPath id="SVGID_6_">
			<use xlink:href="#SVGID_13_"  style="overflow:visible;"/>
		</clipPath>
		<g class="st10">
			<defs>
				<rect id="SVGID_15_" x="-971.9" y="-842.2" width="1058.3" height="1313.9"/>
			</defs>
			<clipPath id="SVGID_8_">
				<use xlink:href="#SVGID_15_"  style="overflow:visible;"/>
			</clipPath>
		</g>
	</g>
</g>
<g>
	
		<rect x="39.1" y="19.6" transform="matrix(-0.7071 -0.7071 0.7071 -0.7071 45.726 94.4215)" class="st1" width="6.6" height="36.4"/>
	<path class="st0" d="M31.9,54.3l-6.1-6.1l27.1-27.1l6.1,6.1L31.9,54.3z M28.7,48.3l3.2,3.2l24.3-24.3L52.9,24L28.7,48.3z"/>
</g>
<g>
	
		<rect x="37" y="21.7" transform="matrix(-0.7071 0.7071 -0.7071 -0.7071 96.9794 39.5506)" class="st1" width="6.6" height="36.4"/>
	<path class="st0" d="M50.8,56.5L23.7,29.3l6.1-6.1l27.1,27.1L50.8,56.5z M26.5,29.3l24.3,24.3l3.2-3.2L29.8,26.1L26.5,29.3z"/>
</g>
<g>
	<path class="st1" d="M27.4,27l-3.6,3.6c-0.2,0.2-0.5,0.3-0.8,0.3l-9.5,0.6c-0.3,0-0.7-0.1-0.9-0.3l-9-9c-0.2-0.2-0.2-0.6,0-0.8l4-4
		c0.2-0.2,0.6-0.2,0.8,0l7.5,7.5c0.2,0.2,0.6,0.2,0.8,0l4.3-4.3c0,0,4.3-4.3,4.3-4.3c0.2-0.2,0.2-0.6,0-0.8L17.9,8
		c-0.2-0.2-0.2-0.6,0-0.8l4-4c0.2-0.2,0.6-0.2,0.8,0l9,9c0.2,0.2,0.4,0.6,0.3,0.9l-0.6,9.5c0,0.3-0.1,0.6-0.3,0.8
		C31,23.4,27.4,27,27.4,27z"/>
	<path class="st0" d="M13.6,32.5c-0.6,0-1.1-0.2-1.5-0.6l-9-9c-0.3-0.3-0.5-0.7-0.5-1.1S2.7,21,3,20.7l4-4c0.3-0.3,0.7-0.5,1.1-0.5
		c0,0,0,0,0,0c0.4,0,0.8,0.2,1.1,0.5l7.2,7.2l8-8l-7.2-7.2c-0.6-0.6-0.6-1.6,0-2.2l4-4c0.6-0.6,1.6-0.6,2.2,0l9,9
		c0.4,0.4,0.7,1.1,0.6,1.7l-0.6,9.5c0,0.5-0.3,1-0.6,1.4l-7.1,7.1c-0.4,0.4-0.9,0.6-1.4,0.6l-9.5,0.6C13.7,32.5,13.6,32.5,13.6,32.5
		z M4.8,21.8l8.7,8.7c0,0,0.1,0.1,0.1,0.1l9.5-0.6c0,0,0.1,0,0.1-0.1l7.1-7.1c0,0,0-0.1,0.1-0.1l0.6-9.5c0-0.1,0-0.1-0.1-0.1
		l-8.7-8.7l-3.3,3.3l7.2,7.2c0.6,0.6,0.6,1.6,0,2.2l-8.7,8.7c-0.3,0.3-0.7,0.5-1.1,0.5c0,0,0,0,0,0c-0.4,0-0.8-0.2-1.1-0.5l-7.2-7.2
		L4.8,21.8z M16.6,24.2L16.6,24.2C16.6,24.2,16.6,24.2,16.6,24.2z M4.4,22.1L4.4,22.1C4.4,22.1,4.4,22.1,4.4,22.1z M8.4,18.1
		L8.4,18.1C8.4,18.1,8.4,18.1,8.4,18.1z"/>
</g>
<g>
	<path class="st0" d="M58.4,77.6c-0.4,0-0.8-0.1-1.1-0.4l-9-9c-0.4-0.4-0.7-1.1-0.6-1.7l0.6-9.5c0-0.5,0.3-1,0.6-1.4l7.1-7.1
		c0.4-0.4,0.9-0.6,1.4-0.6l9.5-0.6c0.6,0,1.2,0.2,1.7,0.6l9,9c0.3,0.3,0.5,0.7,0.5,1.1s-0.2,0.8-0.5,1.1l-4,4
		c-0.6,0.6-1.6,0.6-2.2,0l-7.2-7.2l-8,8l7.2,7.2c0.6,0.6,0.6,1.6,0,2.2l-4,4C59.2,77.4,58.8,77.6,58.4,77.6z M67,49.2
		C67,49.2,67,49.2,67,49.2l-9.5,0.6c0,0-0.1,0-0.1,0.1L50.3,57c0,0-0.1,0.1-0.1,0.1l-0.6,9.5c0,0.1,0,0.1,0.1,0.1l8.7,8.7l3.3-3.3
		l-7.2-7.2c-0.6-0.6-0.6-1.6,0-2.2l8.7-8.7c0.3-0.3,0.7-0.5,1.1-0.5c0,0,0,0,0,0c0.4,0,0.8,0.2,1.1,0.5l7.2,7.2l3.3-3.3l-8.7-8.7
		C67.1,49.2,67.1,49.2,67,49.2z M76.2,58.3C76.2,58.3,76.2,58.3,76.2,58.3L76.2,58.3z M64,55.5C64,55.5,64,55.5,64,55.5L64,55.5z"/>
</g>
<g>
	<path class="st1" d="M55,25.5l-4.1-4.1c-0.4-0.4-0.5-1.1,0-1.5l6.9-6.9c0.1-0.1,0.3-0.3,0.5-0.3l10.2-5.1c0.2-0.1,0.4,0,0.6,0.1
		l1.9,1.9l-0.3-0.3l1.9,1.9c0.1,0.1,0.2,0.4,0.1,0.6l-5.1,10.2c-0.1,0.2-0.2,0.4-0.3,0.5l-6.9,6.9c-0.4,0.4-1.1,0.4-1.5,0l-4.1-4.1
		L55,25.5z"/>
	<path class="st0" d="M59.6,30.6c-0.5,0-1.1-0.2-1.5-0.6l-7.9-7.9c-0.8-0.8-0.8-2.1,0-2.9l6.9-6.9c0.2-0.2,0.5-0.4,0.8-0.6l10.1-5
		c0.6-0.3,1.3-0.1,1.7,0.3l3.5,3.5c0.4,0.4,0.6,1.1,0.3,1.7l-5.1,10.2c-0.1,0.3-0.3,0.5-0.5,0.8L61,30.1
		C60.6,30.4,60.1,30.6,59.6,30.6z M55.7,24.8l3.8,3.8c0.1,0.1,0.1,0,0.1,0l6.9-6.9c0.1-0.1,0.1-0.1,0.1-0.2l4.9-9.9l-3-3l-9.8,4.9
		c-0.1,0.1-0.2,0.1-0.2,0.2l-6.9,6.9c0,0,0,0.1,0,0.1L55.7,24.8z"/>
</g>
<g>
	<path class="st0" d="M16,77.6l-4-0.4c-0.4,0-0.8-0.1-1-0.4l-7.6-7.6c-0.3-0.3-0.4-0.7-0.4-1l-0.4-4l0-0.1c0-0.3,0.2-0.6,0.4-0.8
		l14.9-14.9c0.2-0.2,0.5-0.4,0.8-0.4l7.9-0.9c0.4,0,0.9,0.1,1.2,0.4l5,5c0.3,0.3,0.5,0.7,0.4,1.2l-0.9,7.9c0,0.3-0.2,0.6-0.4,0.9
		L17,77.2c-0.2,0.2-0.5,0.4-0.8,0.4L16,77.6z M12.2,75.3l3.5,0.3L30.3,61l0.9-7.4L26.5,49l-7.4,0.9L4.6,64.4l0.3,3.5L12.2,75.3z"/>
</g>
<g>
	<line class="st1" x1="18.2" y1="74.2" x2="6" y2="61.9"/>
	<rect x="11.1" y="59.4" transform="matrix(0.7071 -0.7071 0.7071 0.7071 -44.5618 28.498)" class="st0" width="2" height="17.3"/>
</g>
<g>
	<line class="st1" x1="30.7" y1="61.7" x2="18.5" y2="49.4"/>
	<rect x="23.6" y="46.9" transform="matrix(0.7071 -0.7071 0.7071 0.7071 -32.0618 33.6756)" class="st0" width="2" height="17.3"/>
</g>
<g>
	<g>
		<line class="st1" x1="26.7" y1="58.1" x2="14.5" y2="70.4"/>
		
			<rect x="11.9" y="63.3" transform="matrix(0.7071 -0.7071 0.7071 0.7071 -39.4155 33.3675)" class="st0" width="17.3" height="2"/>
	</g>
	<g>
		<line class="st1" x1="22" y1="53.5" x2="9.8" y2="65.7"/>
		<rect x="7.2" y="58.6" transform="matrix(0.7071 -0.7071 0.7071 0.7071 -37.4795 28.6937)" class="st0" width="17.3" height="2"/>
	</g>
</g>
</svg>
