<?xml version="1.0" encoding="utf-8"?>
<!-- Generator: Adobe Illustrator 21.0.1, SVG Export Plug-In . SVG Version: 6.00 Build 0)  -->
<svg version="1.1" id="Layer_1" xmlns="http://www.w3.org/2000/svg" xmlns:xlink="http://www.w3.org/1999/xlink" x="0px" y="0px"
	 viewBox="0 0 80 80" style="enable-background:new 0 0 80 80;" xml:space="preserve">
<style type="text/css">
	.st0{fill:#39314C;}
	.st1{fill:#FFFFFF;}
	.st2{fill:none;stroke:#48E584;stroke-width:2;stroke-linejoin:round;stroke-miterlimit:10;}
	.st3{fill:none;stroke:#39314C;stroke-width:2;stroke-linejoin:round;stroke-miterlimit:10;}
	.st4{fill:#48E584;}
	.st5{fill:none;stroke:#39314C;stroke-width:2;stroke-miterlimit:10;}
	.st6{fill:none;stroke:#48E584;stroke-width:2;stroke-linecap:round;stroke-miterlimit:10;}
	.st7{fill:none;stroke:#39314C;stroke-width:2;stroke-linecap:round;stroke-miterlimit:10;}
	.st8{clip-path:url(#SVGID_2_);}
	.st9{clip-path:url(#SVGID_4_);fill:#39314C;}
	.st10{clip-path:url(#SVGID_6_);}
	.st11{clip-path:url(#SVGID_8_);fill:#39314C;}
	.st12{fill:none;stroke:#39314C;stroke-width:1.9425;stroke-miterlimit:10;}
	.st13{fill-rule:evenodd;clip-rule:evenodd;fill:#39314C;}
	.st14{fill-rule:evenodd;clip-rule:evenodd;fill:none;stroke:#39314C;stroke-width:2;stroke-miterlimit:10;}
	.st15{fill-rule:evenodd;clip-rule:evenodd;fill:#39314C;stroke:#39314C;stroke-width:1.6222;stroke-miterlimit:10;}
	.st16{clip-path:url(#SVGID_10_);}
	.st17{clip-path:url(#SVGID_12_);}
	.st18{fill:#FFFFFF;stroke:#39314C;stroke-width:2;stroke-linejoin:round;stroke-miterlimit:10;}
	.st19{clip-path:url(#SVGID_14_);}
	.st20{clip-path:url(#SVGID_16_);fill:#48E584;}
	.st21{fill:#39314C;stroke:#39314C;stroke-width:2;stroke-miterlimit:10;}
	.st22{fill:#48E584;stroke:#48E584;stroke-linecap:round;stroke-miterlimit:10;}
	.st23{fill:#39314C;stroke:#39314C;stroke-miterlimit:10;}
	.st24{fill:#48E584;stroke:#48E584;stroke-width:2;stroke-linecap:round;stroke-miterlimit:10;}
	.st25{fill:#FFFFFF;stroke:#48E584;stroke-width:2;stroke-linecap:round;stroke-linejoin:round;stroke-miterlimit:10;}
	.st26{fill:#FFFFFF;stroke:#39314C;stroke-width:2;stroke-miterlimit:10;}
	.st27{fill:#FFFFFF;stroke:#39314C;stroke-width:2;stroke-linecap:round;stroke-miterlimit:10;}
	.st28{fill:#48E584;stroke:#39314C;stroke-width:2;stroke-miterlimit:10;}
	.st29{fill:none;stroke:#39314C;stroke-width:3;stroke-miterlimit:10;}
	.st30{fill:none;stroke:#39314C;stroke-width:3;stroke-linejoin:round;stroke-miterlimit:10;}
</style>
<g>
	<path class="st0" d="M57.6,3.2c2.5,0,4.9,1.1,6.6,3.1l10.8,13c3,3.6,2.5,9.1-1.1,12.1l-2.6,2.2c-1.6,1.3-3.5,2-5.5,2
		c-2.5,0-4.9-1.1-6.6-3.1l-10.8-13c-3-3.6-2.5-9.1,1.1-12.1l2.6-2.2C53.8,3.8,55.7,3.2,57.6,3.2 M57.6,1.2L57.6,1.2
		c-2.5,0-4.9,0.9-6.8,2.4l-2.6,2.2c-2.2,1.8-3.5,4.3-3.8,7.2c-0.3,2.8,0.6,5.6,2.4,7.7l10.8,13c2,2.4,5,3.8,8.1,3.8
		c2.5,0,4.9-0.9,6.8-2.4l2.6-2.2c2.2-1.8,3.5-4.3,3.8-7.2c0.3-2.8-0.6-5.6-2.4-7.7L65.8,5C63.8,2.6,60.8,1.2,57.6,1.2L57.6,1.2z"/>
</g>
<g>
	<path class="st0" d="M57.6,9.5c1.3,0,2.7,0.6,3.6,1.7l8.4,10.2c1.6,2,1.4,4.9-0.6,6.6h0c-0.9,0.7-1.9,1.1-3,1.1
		c-1.3,0-2.7-0.6-3.6-1.7L54,17.1c-1.6-2-1.4-4.9,0.6-6.6C55.5,9.9,56.6,9.5,57.6,9.5 M57.6,7.5L57.6,7.5c-1.5,0-3.1,0.5-4.2,1.5
		c-1.4,1.1-2.2,2.7-2.4,4.5c-0.2,1.8,0.4,3.5,1.5,4.9l8.4,10.2c1.3,1.5,3.1,2.4,5.1,2.4c1.5,0,3.1-0.5,4.2-1.5
		c1.4-1.1,2.2-2.7,2.4-4.5s-0.4-3.5-1.5-4.9L62.7,9.9C61.5,8.4,59.6,7.5,57.6,7.5L57.6,7.5z"/>
</g>
<g>
	<path class="st0" d="M6.7,69.7c-0.1,0-0.2,0-0.3,0c-0.7-0.1-1.4-0.4-1.8-1l-2-2.4c-0.9-1.1-0.8-2.8,0.4-3.8l47.1-39.1l1.3,1.5
		L4.2,64.1C4.1,64.2,4,64.4,4,64.6s0,0.4,0.2,0.5l2,2.4c0.1,0.1,0.3,0.2,0.5,0.2c0.2,0,0.4,0,0.5-0.2l47.1-39.1l1.3,1.5L8.4,69.1
		C7.9,69.5,7.3,69.7,6.7,69.7z"/>
</g>
<g>
	<path class="st0" d="M17.8,78c-0.1,0-0.1,0-0.2,0C17,78,16.4,77.7,16,77.2L7.6,67.1l12.4-10.3l4.1,5c0.7,0.8,0.6,2-0.3,2.7
		l-3.3,2.8l3,3.7c0.4,0.5,0.6,1,0.5,1.6c-0.1,0.6-0.3,1.1-0.8,1.5l-4.2,3.5C18.8,77.9,18.3,78,17.8,78z M10.5,67.4l7.1,8.6
		c0.1,0.1,0.1,0.1,0.2,0.1c0,0,0.1,0,0.2-0.1l4.2-3.5c0.1-0.1,0.1-0.1,0.1-0.2c0,0,0-0.1-0.1-0.2l-3.3-4c-0.5-0.7-0.5-1.6,0.2-2.2
		l0,0l3.7-3.1l-2.8-3.3L10.5,67.4z"/>
</g>
<g>
	<defs>
		<path id="SVGID_1_" d="M300.7-187c-0.9,0-1.5,0.7-1.5,1.5v20.5c0,0.9,0.7,1.5,1.5,1.5c0.9,0,1.5-0.7,1.5-1.5v-20.5
			C302.2-186.4,301.5-187,300.7-187z"/>
	</defs>
	<clipPath id="SVGID_2_">
		<use xlink:href="#SVGID_1_"  style="overflow:visible;"/>
	</clipPath>
	<g class="st8">
		<defs>
			<rect id="SVGID_3_" x="-421.2" y="-926.6" width="1366" height="1696"/>
		</defs>
		<clipPath id="SVGID_4_">
			<use xlink:href="#SVGID_3_"  style="overflow:visible;"/>
		</clipPath>
	</g>
</g>
<g>
	<defs>
		<path id="SVGID_5_" d="M300.7-160.8c-0.9,0-1.5,0.7-1.5,1.5v8.2c0,0.9,0.7,1.5,1.5,1.5c0.9,0,1.5-0.7,1.5-1.5v-8.2
			C302.2-160.1,301.5-160.8,300.7-160.8z"/>
	</defs>
	<clipPath id="SVGID_6_">
		<use xlink:href="#SVGID_5_"  style="overflow:visible;"/>
	</clipPath>
	<g class="st10">
		<defs>
			<rect id="SVGID_7_" x="-421.2" y="-926.6" width="1366" height="1696"/>
		</defs>
		<clipPath id="SVGID_8_">
			<use xlink:href="#SVGID_7_"  style="overflow:visible;"/>
		</clipPath>
	</g>
</g>
</svg>
