<?xml version="1.0" encoding="utf-8"?>
<!-- Generator: Adobe Illustrator 21.0.2, SVG Export Plug-In . SVG Version: 6.00 Build 0)  -->
<svg version="1.1" id="Layer_1" xmlns="http://www.w3.org/2000/svg" xmlns:xlink="http://www.w3.org/1999/xlink" x="0px" y="0px"
	 viewBox="0 0 80 80" style="enable-background:new 0 0 80 80;" xml:space="preserve">
<style type="text/css">
	.st0{fill:#39314C;}
	.st1{opacity:0.3;}
	.st2{fill:#998DB2;}
	.st3{fill:#48E584;}
	.st4{opacity:0.4;enable-background:new    ;}
</style>
<g>
	<circle class="st0" cx="40.4" cy="40.2" r="35.7"/>
</g>
<g>
	<g class="st1">
		<g>
			<g>
				<path d="M46.1,29c2.9,0.2,5.1,2.5,5.1,5.4h-5.1h-0.3h-7.3h-0.2h-5.1c0-2.9,2.3-5.3,5.1-5.4H46.1 M46.2,27.5L46.2,27.5h-8l0,0
					l0,0c-3.7,0.2-6.5,3.2-6.5,6.8v1.5h1.5h5.1h0.3h7.3h0.3h5.1h1.5v-1.5C52.7,30.7,49.9,27.8,46.2,27.5L46.2,27.5L46.2,27.5z"/>
			</g>
		</g>
		<path d="M59.7,54.5H24.7c-0.7,0-1.1-0.5-1.1-1.1V39.7h37.3v13.7C60.9,54,60.4,54.5,59.7,54.5z"/>
		<path d="M24.7,34.4h35.1c0.7,0,1.1,0.5,1.1,1.1v4.7H23.5v-4.7C23.5,34.9,24.1,34.4,24.7,34.4z"/>
	</g>
	<g>
		<g>
			<g>
				<path class="st2" d="M44.5,27.4c2.9,0.2,5.1,2.5,5.1,5.4h-5.1h-0.3h-7.3h-0.2h-5.1c0-2.9,2.3-5.3,5.1-5.4H44.5 M44.6,25.9
					L44.6,25.9h-8l0,0l0,0c-3.7,0.2-6.5,3.2-6.5,6.8v1.5h1.5h5.1h0.3h7.3h0.3h5.1h1.5v-1.5C51.1,29.1,48.2,26.2,44.6,25.9L44.6,25.9
					L44.6,25.9z"/>
			</g>
		</g>
		<path class="st2" d="M58.1,52.9H23.1c-0.7,0-1.1-0.5-1.1-1.1V38.1h37.3v13.7C59.3,52.4,58.8,52.9,58.1,52.9z"/>
		<g>
			<path class="st3" d="M45.5,38.1h-9.7v0.2c0,1.4,1.1,2.4,2.5,2.5l0,0h4.6l0,0c1.4,0,2.5-1.1,2.5-2.4L45.5,38.1L45.5,38.1z"/>
		</g>
	</g>
	<rect x="21.9" y="37.7" class="st4" width="37.3" height="1.8"/>
	<path class="st2" d="M23.1,32.8h35.1c0.7,0,1.1,0.5,1.1,1.1v4.7H21.9v-4.7C21.9,33.3,22.5,32.8,23.1,32.8z"/>
</g>
</svg>
